<?xml version="1.0" standalone="no"?>
<!DOCTYPE svg PUBLIC "-//W3C//DTD SVG 1.1//EN" "http://www.w3.org/Graphics/SVG/1.1/DTD/svg11.dtd" >
<svg xmlns="http://www.w3.org/2000/svg">
<metadata>Generated by IcoMoon</metadata>
<defs>
<font id="icomoon" horiz-adv-x="1024">
<font-face units-per-em="1024" ascent="960" descent="-64" />
<missing-glyph horiz-adv-x="1024" />
<glyph unicode="&#x20;" horiz-adv-x="512" d="" />
<glyph unicode="&#xe900;" glyph-name="SVG-07" horiz-adv-x="1373" d="M438.857 240.12c-5.133 11.549-10.266 11.549-15.398 0-38.496 0-76.992 0-115.489 0-14.115 15.398-28.231 12.832-42.346 0-12.832 0-26.947 0-39.779-1.283-6.416 15.398-14.115 15.398-21.815 0-17.965-10.266-57.744 20.531-56.461-29.514 1.283-41.063 23.098-65.444 64.16-65.444 224.561 0 447.84 0 672.401 1.283 2.566-16.682 28.231-23.098 19.248-44.912-1.283 0-2.566 0-3.85-1.283-16.682 6.416-34.647 1.283-51.328 1.283-210.446 1.283-422.175 1.283-632.622 2.566-8.982 0-17.965 0-26.947 1.283-41.063 6.416-41.063 6.416-41.063-35.93 0-30.797-1.283-61.594 0-92.391 1.283-26.947-8.982-39.779-37.213-39.779-76.992 0-76.992-1.283-76.992 75.709 0 251.509 0 504.301 0 755.81 0 17.965-2.566 33.363-14.115 50.045-29.514 38.496-21.815 91.108 14.115 120.622 34.647 29.514 87.258 28.231 119.338-1.283s35.93-83.409 8.982-121.905c-7.699-10.266-12.832-20.531-14.115-34.647-1.283-23.098 3.85-32.080 29.514-32.080 340.050 1.283 680.1 0 1021.434 1.283 10.266 0 26.947-6.416 29.514 8.982 3.85 16.682 3.85 34.647-8.982 51.328-38.496 50.045-30.797 105.223 16.682 136.020 33.363 21.815 87.258 15.398 114.206-14.115 29.514-32.080 33.363-79.559 6.416-112.922-11.549-14.115-15.398-28.231-15.398-46.195 0-100.090-1.283-198.897-1.283-298.987 0-10.266 2.566-169.383 1.283-189.915-5.133-1.283-30.797-307.97-30.797-307.97s-8.982 422.175-12.832 424.742c1.283 15.398 2.566 275.89 2.566 391.378 0 15.398 0 29.514 14.115 43.629 26.947 24.381 25.664 42.346 2.566 66.727-19.248 20.531-41.063 19.248-60.311 2.566-23.098-19.248-24.381-47.479-1.283-69.293 15.398-14.115 17.965-30.797 17.965-48.762 0-96.241 0-192.481 0-288.722 0-33.363-3.85-66.727 2.566-98.807 0-3.85-1.283-7.699-1.283-12.832-12.832-35.93-6.416-73.143 0-109.073-1.283-5.133-1.283-11.549-7.699-14.115-8.982 6.416-17.965 14.115-25.664 20.531-3.85 5.133-6.416 8.982-10.266 14.115 0 5.133 0 8.982 0 14.115 0 3.85 0 8.982 0 12.832 0 119.338 1.283 237.393 1.283 356.732 0 7.699 7.699 24.381-12.832 19.248-16.682 0-32.080-1.283-48.762-1.283-5.133-1.283-6.416-5.133-6.416-10.266-5.133-123.188-2.566-247.659 0-370.847 0-5.133 0-8.982 0-14.115-2.566-3.85-5.133-8.982-7.699-12.832-26.947-6.416-30.797-32.080-41.063-52.612-15.398 0-30.797 0-46.195 0-6.416 14.115-14.115 14.115-21.815 0-12.832-1.283-26.947-5.133-39.779 2.566zM74.426 405.654c0-51.328 0-102.657 0-153.985 0-82.125 0-164.251 0-247.659 0-11.549-2.566-24.381 14.115-25.664 19.248-1.283 17.965 14.115 17.965 25.664 0 8.982 0 17.965 0 26.947 0 251.509 0 503.018 0 755.81 0 17.965-1.283 34.647 15.398 50.045 20.531 17.965 19.248 48.762 2.566 66.727-17.965 19.248-46.195 20.531-64.16 3.85-23.098-20.531-25.664-48.762-2.566-68.010 15.398-14.115 16.682-28.231 16.682-44.912 0-129.604 0-259.208 0-388.812zM594.125 494.195c-1.283 0-1.283 0 0 0-1.283-59.028 0-119.338-1.283-178.366 0-23.098 2.566-38.496 30.797-35.93 23.098 2.566 48.762-7.699 47.479 33.363-2.566 89.825-1.283 180.932-1.283 270.757 0 32.080 0 64.16 0 96.241 0 35.93-25.664 26.947-46.195 28.231s-30.797-5.133-30.797-29.514c1.283-61.594 1.283-123.188 1.283-184.782zM442.707 491.629c0 62.877-1.283 125.754 0 188.632 1.283 30.797-17.965 28.231-38.496 29.514-19.248 0-35.93 1.283-35.93-26.947 1.283-124.471 1.283-248.942 0-373.414 0-34.647 21.815-26.947 41.063-28.231 21.815-1.283 33.363 3.85 33.363 29.514-1.283 59.028 0 119.338 0 180.932zM818.687 491.629c0-59.028 1.283-119.338-1.283-178.366-1.283-29.514 11.549-34.647 35.93-33.363 23.098 0 38.496 1.283 38.496 32.080-1.283 121.905-1.283 243.81 0 366.997 0 28.231-11.549 32.080-35.93 32.080s-39.779-3.85-38.496-33.363c1.283-62.877 1.283-124.471 1.283-186.065zM1044.531 492.912c0-61.594 1.283-123.188 0-184.782 0-24.381 8.982-29.514 30.797-28.231 19.248 1.283 43.629-8.982 43.629 25.664 0 124.471 0 248.942 0 373.414 0 34.647-24.381 24.381-43.629 26.947-20.531 1.283-30.797-2.566-30.797-28.231 0-61.594 0-123.188 0-184.782zM777.624 494.195c0 61.594-2.566 123.188 1.283 184.782 1.283 39.779-24.381 24.381-42.346 28.231-23.098 5.133-28.231-8.982-28.231-26.947 0-123.188 0-247.659 0-370.847 0-32.080 19.248-28.231 41.063-29.514 25.664-1.283 30.797 10.266 29.514 32.080-2.566 60.311-1.283 120.622-1.283 182.216zM1002.185 490.346c0 61.594-1.283 123.188 0 184.782 0 24.381-8.982 32.080-32.080 30.797-19.248-1.283-39.779 2.566-39.779-28.231 1.283-123.188 1.283-247.659 0-370.847 0-32.080 19.248-26.947 38.496-28.231 21.815-1.283 33.363 2.566 32.080 29.514 0 61.594 1.283 121.905 1.283 182.216zM257.925 495.479c0-62.877 1.283-125.754 0-188.632-1.283-25.664 12.832-26.947 32.080-25.664s39.779-5.133 39.779 26.947c-1.283 123.188-1.283 247.659 0 370.847 0 30.797-17.965 28.231-38.496 28.231-21.815 1.283-33.363-3.85-32.080-29.514 0-61.594-1.283-121.905-1.283-182.216zM216.862 495.479c0 59.028-1.283 119.338 0 178.366 1.283 25.664-6.416 34.647-33.363 33.363-21.815-1.283-38.496 0-38.496-32.080 1.283-120.622 1.283-242.526 0-364.431 0-26.947 10.266-32.080 34.647-32.080s38.496 3.85 37.213 33.363c-1.283 61.594 0 121.905 0 183.499zM483.769 492.912c0-60.311 1.283-120.622 0-182.216 0-23.098 5.133-33.363 30.797-32.080 21.815 1.283 41.063-1.283 39.779 30.797-1.283 121.905-1.283 243.81 0 366.997 0 29.514-15.398 29.514-37.213 30.797-24.381 1.283-34.647-6.416-33.363-32.080 1.283-61.594 0-121.905 0-182.216zM1342.236 169.544c-6.416-64.16-2.566-128.321-2.566-191.198 0-29.514-7.699-42.346-38.496-41.063-83.409 1.283-73.143-7.699-73.143 73.143 0 32.080 1.283 64.16 1.283 96.241 14.115 0 26.947 0 41.063 1.283 0-34.647 0-68.010 0-102.657 0-8.982-3.85-23.098 12.832-23.098 15.398 0 15.398 11.549 14.115 21.815-1.283 35.93 1.283 214.296 1.283 233.544 0 8.982 1.283 17.965 12.832 7.699 0-12.832 6.416-19.248 17.965-21.815 3.85-6.416 6.416-12.832 10.266-19.248 1.283-5.133 2.566-8.982 2.566-14.115-3.85-7.699-3.85-14.115 0-20.531zM1270.376 106.667c-14.115 0-26.947 0-41.063-1.283-11.549 21.815-23.098-12.832-34.647-1.283 2.566 16.682-20.531 20.531-20.531 37.213 8.982 8.982 19.248 14.115 32.080 12.832 21.815-24.381 41.063-10.266 61.594 2.566 1.283-12.832 2.566-24.381 3.85-37.213-1.283-3.85-1.283-8.982-1.283-12.832zM1174.135 141.313c0-16.682 23.098-19.248 20.531-37.213-28.231 0-55.178 0-83.409 0-5.133 14.115-28.231 20.531-19.248 42.346 28.231-1.283 55.178-3.85 82.125-5.133zM1093.293 146.446c-10.266-20.531 14.115-26.947 19.248-42.346-17.965-7.699-37.213-5.133-56.461-2.566 7.699 19.248-12.832 25.664-17.965 39.779 16.682 11.549 35.93 5.133 55.178 5.133zM1036.832 141.313c5.133-14.115 25.664-20.531 17.965-39.779-21.815 0-43.629-1.283-65.444-1.283l1.283 1.283c-1.283 23.098 26.947 23.098 32.080 39.779 3.85 0 8.982 0 14.115 0zM1343.519 272.201c-10.266-1.283-19.248-1.283-21.815 11.549 5.133 1.283 10.266 1.283 16.682 2.566 2.566-6.416 3.85-10.266 5.133-14.115zM1235.729 202.907c-3.85 32.080-25.664 37.213-53.895 35.93-23.098-2.566-47.479 1.283-70.576 2.566 10.266 20.531 14.115 44.912 41.063 52.612 16.682-28.231 42.346-2.566 61.594-10.266 8.982-6.416 16.682-2.566 24.381 3.85 8.982-6.416 17.965-14.115 25.664-20.531 3.85-16.682 11.549-32.080-1.283-47.479-8.982-8.982-15.398-17.965-26.947-16.682zM882.847 146.446c46.195 0 92.391 7.699 138.586-5.133-6.416-17.965-33.363-17.965-32.080-39.779-5.133-1.283-10.266-1.283-15.398-2.566-20.531 0-41.063 0-61.594-1.283-3.85 1.283-6.416 2.566-10.266 2.566 8.982 23.098-16.682 29.514-19.248 46.195zM307.97 240.12c-14.115-3.85-28.231-3.85-42.346 0 14.115 12.832 28.231 15.398 42.346 0zM1213.915 281.183c1.283 7.699 3.85 15.398 14.115 16.682 3.85-5.133 6.416-8.982 10.266-14.115-8.982-3.85-15.398-7.699-24.381-2.566zM1063.779 240.12c-7.699 0-14.115 0-21.815 0 7.699 14.115 15.398 14.115 21.815 0zM1002.185 241.404c-7.699-1.283-15.398-1.283-21.815-2.566 6.416 15.398 14.115 15.398 21.815 2.566zM225.845 238.837c-7.699 0-14.115 0-21.815 0 7.699 15.398 14.115 15.398 21.815 0zM438.857 240.12c-5.133 0-10.266 0-15.398 0 5.133 11.549 10.266 11.549 15.398 0zM1166.436 700.792c-2.566-3.85-3.85-6.416-6.416-10.266-1.283 5.133 1.283 8.982 6.416 10.266zM1311.439 243.97c16.682 1.283 23.098-5.133 17.965-21.815-11.549 2.566-17.965 10.266-17.965 21.815zM1270.376 182.376c-1.283-7.699-2.566-16.682-2.566-24.381-20.531-12.832-39.779-25.664-61.594-2.566 6.416 17.965 20.531 32.080 30.797 47.479 11.549-1.283 16.682 7.699 25.664 14.115 8.982-10.266 6.416-23.098 7.699-34.647zM116.772 157.995h1139.489v-78.276h-1139.489v78.276zM1307.589 779.068h25.664v-802.005h-25.664v802.005z" />
<glyph unicode="&#xe901;" glyph-name="SVG-06" horiz-adv-x="1034" d="M892.489 663.781c-1.277-7.661-26.813-14.045 0-24.259 20.429-7.661 40.858-20.429 60.010-31.92 58.733-35.751 80.439-91.93 81.716-158.324 5.107-203.012-123.85-391.98-312.818-472.419-209.397-89.377-441.776-33.197-588.608 125.127-97.037 107.252-141.726 234.933-131.511 379.212 6.384 85.546 66.394 128.958 136.618 158.324 148.11 62.564 303.88 70.224 462.204 62.564 45.965-2.554 70.224 3.83 88.1 54.903 26.813 76.608 72.778 144.279 145.556 186.414 40.858 22.983 94.484 21.706 125.127-2.554 35.751-28.090 49.796-75.332 34.474-125.127-10.214-30.643-21.706-61.287-43.411-85.546-17.875 16.599-3.83 40.858-12.768 60.010 3.83 10.214 10.214 19.152 11.491 29.367 3.83 30.643 14.045 65.117-15.322 86.823-30.643 21.706-61.287 8.938-90.653-8.938-37.027-24.259-65.117-57.456-85.546-94.484-49.796-93.207-76.608-197.905-148.11-279.621-7.661-8.938-6.384-20.429 3.83-22.983 21.706-5.107 45.965-19.152 63.84 11.491 40.858 72.778 104.698 123.85 173.646 168.539 10.214-19.152 29.367-11.491 42.135-16.599zM51.072 413.526c-12.768-114.913 82.993-284.728 201.736-356.229 176.2-105.975 356.229-109.805 529.875 2.554 126.404 81.716 195.352 201.736 205.566 358.783-196.628-158.324-731.611-162.155-937.177-5.107zM557.965 528.439c-81.716 8.938-158.324 0-233.656-12.768-60.010-10.214-122.574-22.983-171.092-63.84-31.92-25.536-29.367-37.027 8.938-52.349 172.369-65.117 352.399-66.394 531.152-45.965 61.287 6.384 121.297 24.259 180.030 47.242 35.751 14.045 37.027 24.259 8.938 48.519-35.751 30.643-80.439 40.858-123.85 54.903-21.706 7.661-38.304 1.277-47.242-17.875-11.491-21.706 14.045-22.983 22.983-30.643 12.768-11.491 34.474-19.152 20.429-39.581-15.322-22.983-30.643-2.554-44.688 5.107-74.055 40.858-151.94 52.349-234.933 35.751-20.429-3.83-48.519-21.706-53.626 8.938s28.090 25.536 48.519 33.197c28.090 7.661 63.84-6.384 88.1 29.367zM473.696 570.574c20.429 0 40.858 3.83 61.287-1.277 49.796-11.491 74.055 16.599 94.484 53.626 17.875 31.92 14.045 37.027-22.983 39.581-140.449 6.384-278.344-3.83-412.409-47.242-52.349-16.599-103.421-38.304-135.342-88.1-21.706-33.197 0-56.18 17.875-75.332 21.706-21.706 22.983 15.322 37.027 21.706 12.768 6.384 21.706 19.152 35.751 25.536 100.868 54.903 211.95 70.224 324.309 71.501zM763.531 548.868c65.117-21.706 130.234-37.027 171.092-94.484 10.214-14.045 16.599-6.384 25.536 2.554 14.045 14.045 20.429 31.92 17.875 51.072-2.554 37.027-107.252 114.913-143.002 107.252-2.554 0-5.107-2.554-6.384-3.83-22.983-19.152-49.796-31.92-65.117-62.564zM938.454 790.185c8.938-19.152-5.107-43.411 12.768-60.010-10.214-30.643-34.474-48.519-58.733-66.394-14.045 5.107-31.92-2.554-39.581 15.322 26.813 39.581 62.564 68.948 85.546 111.082z" />
<glyph unicode="&#xe902;" glyph-name="SVG-05" horiz-adv-x="984" d="M435.768 816.186c-31.358 54.065-30.277 89.749 0 118.944 27.033 27.033 64.879 32.439 95.155 12.976 43.252-27.033 47.578-56.228 21.626-130.838 133.001-10.813 259.514-44.334 380.621-99.48 10.813-5.407 22.707-8.65 32.439-15.138 10.813-7.569 24.87-15.138 15.138-31.358-8.65-12.976-19.464-12.976-34.602-6.488-47.578 22.707-97.318 43.252-148.139 59.472-25.951 8.65-35.683 4.325-32.439-22.707 0-2.163 0-5.407 0-7.569-1.081-153.546-1.081-153.546 113.537-266.002 51.903-50.822 51.903-57.309 2.163-108.131-16.22-16.22-31.358-32.439-48.659-47.578-31.358-28.114-61.635-50.822-19.464-97.318 22.707-24.87 5.407-67.041-27.033-89.749-32.439-21.626-64.879-19.464-95.155 8.65-27.033 24.87-33.521 69.204-5.407 97.318 24.87 25.951 15.138 37.846-5.407 56.228-30.277 27.033-58.391 57.309-87.586 86.505-24.87 24.87-28.114 48.659-1.081 75.692 38.927 37.846 75.692 77.854 114.619 115.7 12.976 11.894 18.382 23.789 18.382 41.090-1.081 50.822-2.163 101.643 0 152.465 1.081 21.626-8.65 28.114-25.951 32.439-52.984 14.057-108.131 17.301-163.278 21.626-7.569 1.081-16.22 1.081-21.626-6.488-12.976-15.138 0-107.050 16.22-118.944 48.659-36.765 50.822-88.667 2.163-125.432-17.301-12.976-21.626-27.033-21.626-47.578 1.081-69.204 2.163-139.489 0-208.693-1.081-28.114 8.65-41.090 33.521-49.74 59.472-21.626 89.749-65.96 92.993-127.595 3.244-54.065-18.382-99.48-65.96-128.676-47.578-30.277-98.399-32.439-148.139-5.407-50.822 28.114-78.936 73.529-76.773 130.838 2.163 58.391 29.195 104.887 86.505 127.595 29.195 10.813 40.008 25.951 38.927 58.391-3.244 67.041-1.081 134.082-1.081 201.124 0 22.707-3.244 38.927-24.87 54.065-40.008 27.033-44.334 86.505-4.325 113.537 29.195 19.464 30.277 40.008 29.195 67.041-2.163 72.448 17.301 75.692-74.61 64.879-41.090-4.325-82.18-7.569-123.269-17.301-28.114-6.488-44.334-16.22-41.090-49.74 3.244-31.358 0-63.797 1.081-96.237 0-36.765-6.488-72.448 33.521-101.643 32.439-23.789 27.033-63.797 2.163-96.237-6.488-8.65-31.358-10.813-15.138-31.358s10.813-59.472 55.147-56.228c32.439 3.244 56.228-12.976 57.309-50.822 1.081-22.707-12.976-35.683-28.114-45.415-22.707-15.138-29.195-33.521-18.382-57.309 11.894-24.87 2.163-43.252-16.22-60.553-19.464-17.301-41.090-14.057-58.391 0-25.951 20.545-48.659 22.707-73.529 1.081-17.301-14.057-36.765-11.894-56.228-1.081-20.545 11.894-22.707 30.277-19.464 48.659 7.569 34.602 7.569 64.879-29.195 85.423-14.057 7.569-20.545 28.114-11.894 47.578 10.813 24.87 31.358 37.846 56.228 36.765 31.358-1.081 44.334 14.057 54.065 41.090 6.488 18.382 6.488 25.951-8.65 40.008-33.521 32.439-29.195 83.261 9.732 111.375 19.464 14.057 24.87 28.114 23.789 49.74-1.081 43.252-1.081 85.423 0 128.676 0 23.789-7.569 30.277-31.358 22.707-42.171-14.057-81.098-34.602-121.107-54.065-12.976-6.488-24.87-14.057-34.602 1.081-10.813 17.301 0 27.033 14.057 35.683 70.285 38.927 144.895 68.122 222.75 87.586 64.879 15.138 127.595 28.114 196.798 24.87zM491.996 186.864c-55.147 0-103.806-48.659-103.806-104.887 0-55.147 46.496-101.643 101.643-101.643 55.147-1.081 101.643 44.334 102.724 99.48 2.163 56.228-44.334 105.968-100.562 107.050zM745.022 247.417c4.325 4.325 8.65 7.569 11.894 10.813 35.683 34.602 71.366 69.204 107.050 103.806 7.569 7.569 7.569 14.057-2.163 22.707-34.602 32.439-68.122 67.041-100.562 100.562-10.813 11.894-19.464 15.138-31.358 2.163-31.358-32.439-62.716-63.797-95.155-95.155-15.138-14.057-14.057-24.87 1.081-38.927 31.358-29.195 60.553-60.553 90.83-90.83 4.325-4.325 10.813-9.732 18.382-15.138zM282.222 138.205c-28.114 56.228-8.65 91.911 32.439 125.432 17.301 14.057-4.325 20.545-18.382 19.464-28.114-2.163-49.74 7.569-61.635 33.521-6.488 14.057-12.976 27.033-19.464 41.090-5.407-3.244-9.732-3.244-9.732-5.407-11.894-47.578-38.927-74.61-91.911-68.122-4.325 1.081-11.894 2.163-12.976-5.407-1.081-8.65 2.163-14.057 10.813-18.382 32.439-17.301 41.090-46.496 33.521-81.098-2.163-10.813-12.976-21.626-2.163-37.846 43.252 36.765 86.505 40.008 139.489-3.244zM493.077 914.585c-27.033 3.244-36.765-12.976-36.765-35.683 0-20.545 11.894-35.683 33.521-37.846 23.789-1.081 37.846 15.138 40.008 35.683 1.081 22.707-12.976 36.765-36.765 37.846zM244.376 460.435c0 19.464-12.976 30.277-31.358 31.358-19.464 1.081-33.521-11.894-33.521-31.358s10.813-32.439 32.439-32.439c19.464 0 30.277 9.732 32.439 32.439zM739.616 115.497c23.789 0 35.683 9.732 36.765 30.277 1.081 21.626-11.894 33.521-30.277 34.602-19.464 1.081-32.439-11.894-33.521-31.358s9.732-32.439 27.033-33.521zM525.516 586.948c-6.488 15.138-14.057 32.439-34.602 31.358-18.382-1.081-32.439-12.976-31.358-34.602 1.081-20.545 11.894-32.439 32.439-33.521 21.626 0 28.114 17.301 33.521 36.765z" />
<glyph unicode="&#xe903;" glyph-name="SVG-04" horiz-adv-x="1043" d="M403.49 125.63c-26.337 0-47.407-21.070-47.407-47.407s21.070-47.407 47.407-47.407c26.337 0 47.407 21.070 47.407 47.407 0 25.284-21.070 47.407-47.407 47.407zM403.49 53.992c-13.695 0-24.23 10.535-24.23 24.23 0 12.642 10.535 23.177 23.177 23.177s23.177-10.535 23.177-23.177c1.053-13.695-9.481-24.23-22.123-24.23zM862.815 219.391c139.062 116.938 215.967 249.679 163.292 428.774-45.3 156.971-144.329 264.428-305.514 309.728-23.177 6.321-36.872 0-43.193-27.391-25.284-115.885-54.782-230.716-81.119-346.601-5.267-21.070-14.749-29.498-36.872-29.498-87.44 1.053-175.934 1.053-263.374 0-23.177 0-33.712 7.374-35.819 32.658-6.321 62.156-40.033 105.35-97.975 129.58-16.856 6.321-29.498 14.749-40.033 30.551-21.070 32.658-68.477 40.033-96.922 18.963-30.551-23.177-35.819-67.424-10.535-97.975 23.177-28.444 68.477-31.605 97.975-4.214 17.909 16.856 33.712 13.695 50.568 3.16 25.284-16.856 44.247-37.926 50.568-70.584 11.588-57.942 10.535-116.938 31.605-172.774 31.605-82.173 85.333-147.49 161.185-204.379-1.053 0-3.16 0-4.214 0-77.959 0-142.222-63.21-142.222-142.222 0-77.959 63.21-142.222 142.222-142.222s142.222 63.21 142.222 142.222c0 35.819-13.695 68.477-34.765 92.708 77.959-21.070 153.811-20.016 231.77-4.214-18.963-24.23-30.551-54.782-30.551-88.494 0-77.959 63.21-142.222 142.222-142.222 77.959 0 142.222 63.21 142.222 142.222-1.053 75.852-58.996 136.955-132.741 142.222zM66.37 688.198c-12.642 1.053-24.23 8.428-24.23 22.123 0 16.856 12.642 24.23 26.337 24.23 12.642 0 22.123-9.481 21.070-28.444-1.053-10.535-10.535-18.963-23.177-17.909zM642.634 582.848c23.177 99.029 44.247 199.111 66.37 299.193 5.267 23.177 15.802 30.551 41.086 20.016 131.687-52.675 204.379-153.811 239.144-287.605 3.16-10.535 4.214-21.070 7.374-31.605 7.374-22.123-2.107-29.498-24.23-29.498-51.621 0-104.296 0-155.918 0 0 0 0 0 0 0-50.568 0-101.136 1.053-151.704 0-21.070 0-27.391 6.321-22.123 29.498zM417.185 219.391c-2.107 0-5.267 0-7.374 0 0 2.107 2.107 2.107 7.374 0zM403.49-16.593c-52.675 0-94.815 42.14-94.815 94.815s42.14 94.815 94.815 94.815c52.675 0 94.815-42.14 94.815-94.815s-43.193-94.815-94.815-94.815zM290.765 433.251c-31.605 84.28-36.872 79.012 54.782 79.012 96.922 0 193.844 0 291.819 0 108.51 0 215.967-1.053 324.477 1.053 31.605 0 35.819-9.481 29.498-37.926-35.819-144.329-168.56-270.749-342.387-276.016-164.346-5.267-301.3 84.28-358.189 233.877zM852.28-16.593c-52.675 0-94.815 42.14-94.815 94.815s42.14 94.815 94.815 94.815c52.675 0 94.815-42.14 94.815-94.815s-42.14-94.815-94.815-94.815zM852.28 125.63c-26.337 0-47.407-21.070-47.407-47.407s21.070-47.407 47.407-47.407c26.337 0 47.407 21.070 47.407 47.407 0 25.284-21.070 47.407-47.407 47.407zM852.28 53.992c-12.642 0-23.177 10.535-23.177 23.177s10.535 23.177 23.177 23.177 23.177-10.535 23.177-23.177c1.053-12.642-9.481-23.177-23.177-23.177z" />
<glyph unicode="&#xe904;" glyph-name="SVG-03" horiz-adv-x="559" d="M535.664 353.345h-162.42v-417.345h-253.849v417.345h-119.395v215.126h119.395v137.681c0 101.109 48.403 253.849 253.849 253.849h186.084v-205.445h-133.378c-23.664 0-52.706-9.681-52.706-57.008v-124.773h186.084l-23.664-219.429z" />
<glyph unicode="&#xe905;" glyph-name="SVG-02" horiz-adv-x="1020" d="M720.52 960h-417.040c-168.382 0-303.48-135.098-303.48-303.48v-413.124c0-172.298 135.098-307.396 303.48-307.396h413.124c168.382 0 303.48 135.098 303.48 303.48v417.040c3.916 168.382-131.182 303.48-299.564 303.48zM922.187 239.48c0-111.602-90.065-201.667-201.667-201.667h-417.040c-111.602 0-201.667 90.065-201.667 201.667v417.040c0 111.602 90.065 201.667 201.667 201.667h413.124c111.602 0 201.667-90.065 201.667-201.667v-418.998h3.916zM512.979 713.3c-146.845 0-266.279-119.434-266.279-266.279s119.434-266.279 266.279-266.279c146.845 0 266.279 119.434 266.279 266.279s-119.434 266.279-266.279 266.279zM512.979 284.512c-90.065 0-164.467 74.402-164.467 164.467s74.402 164.467 164.467 164.467c90.065 0 164.467-74.402 164.467-164.467-1.958-92.023-74.402-164.467-164.467-164.467zM779.258 772.038c33.285 0 60.696-27.411 60.696-60.696s-27.411-60.696-60.696-60.696c-33.285 0-60.696 27.411-60.696 60.696s25.453 60.696 60.696 60.696z" />
<glyph unicode="&#xe906;" glyph-name="SVG-01" horiz-adv-x="1172" d="M832.771 403.277h-158.843c-43.181 0-78.651-35.47-78.651-78.651v-121.831c0-43.181 35.47-78.651 78.651-78.651h158.843c43.181 0 78.651 35.47 78.651 78.651v121.831c0 43.181-35.47 78.651-78.651 78.651zM854.361 201.253c0-12.337-9.253-21.59-21.59-21.59h-158.843c-12.337 0-21.59 9.253-21.59 21.59v121.831c0 12.337 9.253 21.59 21.59 21.59h158.843c12.337 0 21.59-9.253 21.59-21.59v-121.831zM1172.048 625.349c0 4.627-1.542 9.253-3.084 13.88l-175.807 306.892c-4.627 7.711-13.88 13.88-24.675 13.88h-764.916c-10.795 0-20.048-6.169-24.675-13.88l-175.807-306.892c-1.542-4.627-3.084-9.253-3.084-13.88 0-69.398 41.639-128 100.241-154.217v-505.831c0-15.422 12.337-29.301 29.301-29.301h158.843c0 0 0 0 0 0h222.072c0 0 0 0 0 0h530.506c15.422 0 29.301 12.337 29.301 29.301v502.747c0 1.542 0 1.542 0 3.084 60.145 26.217 101.783 84.819 101.783 154.217zM218.988 902.94h732.53l135.711-239.036h-1003.952l135.711 239.036zM834.313 605.301c-9.253-52.434-53.976-90.988-109.494-90.988-53.976 0-100.241 38.554-109.494 90.988h218.988zM555.181 605.301c-9.253-52.434-53.976-90.988-109.494-90.988s-100.241 38.554-109.494 90.988h218.988zM60.145 605.301h217.446c-9.253-52.434-53.976-90.988-109.494-90.988-53.976 0-100.241 38.554-107.952 90.988zM482.699-5.398h-165.012v309.976c0 23.133 18.506 41.639 41.639 41.639h83.277c23.133 0 41.639-18.506 41.639-41.639l-1.542-309.976zM1013.205-5.398h-473.446v309.976c0 53.976-44.723 98.699-98.699 98.699h-83.277c-53.976 0-98.699-44.723-98.699-98.699v-309.976h-101.783v462.651c3.084 0 6.169 0 10.795 0 58.602 0 109.494 29.301 138.795 74.024 30.843-44.723 81.735-74.024 138.795-74.024s109.494 29.301 138.795 74.024c30.843-44.723 81.735-74.024 138.795-74.024 58.602 0 109.494 29.301 138.795 74.024 30.843-44.723 81.735-74.024 138.795-74.024 3.084 0 6.169 0 9.253 0l3.084-462.651zM1003.952 514.313c-53.976 0-100.241 38.554-109.494 90.988h217.446c-7.711-52.434-53.976-90.988-107.952-90.988z" />
<glyph unicode="&#xe907;" glyph-name="SVG-19" d="M732.444 315.259h-47.407l-16.593 16.593c56.889 66.37 92.444 154.074 92.444 246.519 0 210.963-170.667 381.63-379.259 381.63s-381.63-170.667-381.63-381.63 170.667-381.63 381.63-381.63c94.815 0 180.148 35.556 246.519 92.444l16.593-16.593v-47.407l291.556-291.556 87.704 87.704-291.556 293.926zM381.63 315.259c-144.593 0-263.111 118.519-263.111 263.111s118.519 263.111 263.111 263.111 263.111-118.519 263.111-263.111-118.519-263.111-263.111-263.111z" />
<glyph unicode="&#xe908;" glyph-name="SVG-18" horiz-adv-x="1211" d="M1082.961 868.55c-77.011 69.791-178.087 101.076-285.18 89.043-89.043-10.83-169.664-52.945-229.828-120.329-73.401 50.538-162.444 72.197-251.488 61.368-178.087-21.659-344.141-176.884-312.855-431.981 38.505-305.636 300.823-530.651 601.645-530.651 24.066 0 48.132 1.203 72.197 4.813 300.823 36.099 525.838 286.383 533.058 596.832 3.61 134.769-42.115 252.691-127.549 330.905z" />
<glyph unicode="&#xe909;" glyph-name="SVG-17" horiz-adv-x="1211" d="M1082.961 868.55c-77.011 69.791-178.087 101.076-285.18 89.043-89.043-10.83-169.664-52.945-229.828-120.329-73.401 50.538-162.444 72.197-251.488 61.368-178.087-21.659-344.141-176.884-312.855-431.981 38.505-305.636 300.823-530.651 601.645-530.651 24.066 0 48.132 1.203 72.197 4.813 300.823 36.099 525.838 286.383 533.058 596.832 3.61 134.769-42.115 252.691-127.549 330.905z" />
<glyph unicode="&#xe90a;" glyph-name="SVG-16" horiz-adv-x="1255" d="M669.751 249.658h333.953c12.915 0 20.295 9.225 20.295 20.295v188.195c0 12.915-9.225 20.295-20.295 20.295h-333.953c-12.915 0-20.295-9.225-20.295-20.295v-188.195c-1.845-12.915 7.38-20.295 20.295-20.295zM690.047 437.852h293.362v-145.759h-293.362v145.759zM1236.18 738.595c-14.76 18.45-33.211 29.521-57.196 31.366l-49.816 5.535v101.477c0 46.126-36.901 83.027-83.027 83.027h-963.114c-46.126 0-83.027-36.901-83.027-83.027v-669.751c0-36.901 25.831-70.112 59.041-79.337-1.845-42.436 31.366-79.337 73.802-83.027l964.959-108.858c1.845 0 5.535 0 9.225 0 42.436 0 79.337 31.366 83.027 71.957l64.577 669.751c1.845 20.295-3.69 44.281-18.45 60.886zM42.436 814.241h1044.295v-125.463h-1044.295v125.463zM83.027 917.564h961.268c22.141 0 42.436-18.45 42.436-42.436v-20.295h-1044.295v22.141c0 22.141 18.45 40.591 40.591 40.591zM42.436 207.222v439.121h1044.295v-439.121c0-22.141-18.45-42.436-42.436-42.436h-961.268c-22.141 0-40.591 20.295-40.591 42.436zM1212.195 686.933l-62.732-671.596c-1.845-22.141-22.141-40.591-46.126-36.901l-963.114 107.013c-20.295 1.845-35.056 18.45-36.901 36.901h942.818c46.126 0 83.027 36.901 83.027 83.027v529.528l47.971-3.69c11.070 0 20.295-5.535 27.676-14.76 5.535-7.38 9.225-20.295 7.38-29.521z" />
<glyph unicode="&#xe90b;" glyph-name="SVG-15" horiz-adv-x="1046" d="M523.149-58.854c-192.107 0-361.916 126.928-406.513 303.598-61.749 1.715-109.776 51.457-109.776 113.206s49.742 113.206 113.206 113.206h10.291c58.318 159.518 216.121 265.863 394.506 265.863s336.188-106.345 394.506-265.863h10.291c61.749 0 113.206-49.742 113.206-113.206 0-61.749-49.742-111.491-109.776-113.206-48.027-176.67-217.836-303.598-409.943-303.598zM118.352 438.566c-44.596 0-80.616-36.020-80.616-80.616s36.020-80.616 80.616-80.616h10.291c6.861 0 13.722-5.146 15.437-12.007 37.735-168.094 197.253-289.876 379.069-289.876s341.333 121.782 379.069 289.876c1.715 6.861 8.576 12.007 15.437 12.007h10.291c44.596 0 80.616 36.020 80.616 80.616s-36.020 80.616-80.616 80.616h-20.583c-6.861 0-12.007 5.146-15.437 10.291-51.457 152.657-198.968 253.856-368.777 253.856s-317.32-101.199-368.777-253.856c-1.715-6.861-8.576-10.291-15.437-10.291h-20.583zM523.149-64c-192.107 0-363.631 126.928-411.658 303.598-61.749 1.715-111.491 54.888-111.491 116.637 0 65.179 53.173 118.352 118.352 118.352h5.146c60.034 159.518 219.551 265.863 399.652 265.863 178.385 0 337.903-106.345 399.652-265.863h5.146c65.179 0 118.352-53.173 118.352-118.352 0-61.749-49.742-114.921-111.491-118.352-48.027-174.955-219.551-301.883-411.658-301.883zM118.352 464.295c-58.318 0-106.345-48.027-106.345-106.345s46.312-106.345 104.63-106.345h5.146l1.715-3.43c44.596-173.24 212.69-298.452 401.367-298.452s356.771 125.213 401.367 298.452l1.715 3.43h5.146c58.318 1.715 104.63 49.742 104.63 106.345 0 58.318-48.027 106.345-106.345 106.345h-13.722l-1.715 3.43c-58.318 156.087-214.405 262.432-389.36 262.432s-332.757-104.63-389.36-262.432l-1.715-3.43h-17.152zM523.149-33.126c-185.246 0-346.479 123.497-384.214 295.022-1.715 5.146-5.146 8.576-10.291 8.576h-10.291c-48.027 0-87.477 39.451-87.477 87.477s39.451 87.477 87.477 87.477h20.583c5.146 0 8.576 3.43 10.291 6.861 51.457 154.372 202.399 259.002 373.923 259.002s322.466-104.63 373.923-259.002c1.715-3.43 5.146-6.861 10.291-6.861h20.583c48.027 0 87.477-39.451 87.477-87.477s-39.451-87.477-87.477-87.477h-10.291c-5.146 0-8.576-3.43-10.291-8.576-37.735-171.524-198.968-295.022-384.214-295.022zM118.352 431.705c-41.166 0-75.471-34.305-75.471-75.471s34.305-75.471 75.471-75.471h10.291c10.291 0 18.868-6.861 20.583-17.152 36.020-166.379 193.822-286.446 373.923-286.446s337.903 120.067 373.923 286.446c1.715 10.291 10.291 17.152 20.583 17.152h10.291c41.166 0 75.471 34.305 75.471 75.471s-34.305 75.471-75.471 75.471h-20.583c-8.576 0-17.152 5.146-20.583 13.722-49.742 149.226-197.253 250.425-363.631 250.425s-313.889-101.199-363.631-250.425c-3.43-8.576-10.291-13.722-20.583-13.722h-20.583zM692.958 296.201c0-20.841-16.895-37.735-37.735-37.735s-37.735 16.895-37.735 37.735c0 20.841 16.895 37.735 37.735 37.735s37.735-16.895 37.735-37.735zM655.223 253.32c-24.013 0-42.881 18.868-42.881 42.881s18.868 42.881 42.881 42.881c24.013 0 42.881-18.868 42.881-42.881s-18.868-42.881-42.881-42.881zM655.223 328.791c-17.152 0-32.59-13.722-32.59-32.59s13.722-32.59 32.59-32.59 32.59 13.722 32.59 32.59-15.437 32.59-32.59 32.59zM444.248 296.201c0-20.841-16.895-37.735-37.735-37.735s-37.735 16.895-37.735 37.735c0 20.841 16.895 37.735 37.735 37.735s37.735-16.895 37.735-37.735zM406.513 253.32c-24.013 0-42.881 18.868-42.881 42.881s18.868 42.881 42.881 42.881c24.013 0 42.881-18.868 42.881-42.881s-18.868-42.881-42.881-42.881zM406.513 328.791c-17.152 0-32.59-13.722-32.59-32.59s13.722-32.59 32.59-32.59c17.152 0 32.59 13.722 32.59 32.59s-15.437 32.59-32.59 32.59zM523.149 92.087c-37.735 0-77.186 10.291-111.491 30.874l-6.861 3.43c-6.861 5.146-10.291 13.722-5.146 22.298 5.146 6.861 13.722 10.291 22.298 5.146l6.861-3.43c58.318-36.020 130.358-36.020 188.677 0l6.861 3.43c6.861 5.146 17.152 1.715 22.298-5.146s1.715-17.152-5.146-22.298l-6.861-3.43c-34.305-20.583-73.755-30.874-111.491-30.874zM523.149 85.226c-39.451 0-78.901 12.007-113.206 32.59l-6.861 3.43c-10.291 6.861-13.722 18.868-6.861 29.159s18.868 13.722 29.159 6.861l6.861-3.43c56.603-34.305 126.928-34.305 183.531 0l6.861 3.43c10.291 6.861 24.013 3.43 29.159-6.861 6.861-10.291 3.43-22.298-6.861-29.159l-6.861-3.43c-36.020-20.583-75.471-32.59-114.921-32.59zM415.089 150.405c-3.43 0-6.861-1.715-8.576-5.146-3.43-5.146-1.715-10.291 3.43-13.722l6.861-3.43c65.179-39.451 150.941-39.451 216.121 0l6.861 3.43c5.146 3.43 6.861 8.576 3.43 13.722s-8.576 6.861-13.722 3.43l-6.861-3.43c-60.034-37.735-135.504-37.735-195.538 0l-6.861 3.43c-1.715 0-3.43 1.715-5.146 1.715zM557.454 700.998c-77.186 0-138.935 61.749-138.935 138.935 0 63.464 51.457 114.921 114.921 114.921 51.457 0 94.338-42.881 94.338-94.338 0-42.881-36.020-78.901-78.901-78.901-36.020 0-66.894 29.159-66.894 66.894 0 8.576 6.861 15.437 15.437 15.437s17.152-8.576 17.152-17.152c0-18.868 15.437-34.305 34.305-34.305 25.729 0 48.027 20.583 48.027 48.027 0 34.305-29.159 63.464-63.464 63.464-46.312 0-82.332-37.735-82.332-82.332 0-60.034 48.027-108.060 108.060-108.060 8.576 0 15.437-6.861 15.437-15.437-1.715-10.291-8.576-17.152-17.152-17.152zM557.454 695.853c-78.901 0-144.080 65.179-144.080 144.080 0 66.894 53.173 120.067 120.067 120.067 54.888 0 99.484-44.596 99.484-99.484 0-46.312-37.735-84.047-84.047-84.047-39.451 0-72.040 32.59-72.040 72.040 0 12.007 10.291 20.583 20.583 20.583s20.583-10.291 20.583-20.583c0-15.437 13.722-29.159 29.159-29.159 22.298 0 41.166 18.868 41.166 41.166 0 30.874-25.729 58.318-58.318 58.318-42.881 0-77.186-34.305-77.186-77.186 0-56.603 46.312-101.199 101.199-101.199 12.007 0 20.583-10.291 20.583-20.583 5.146-15.437-5.146-24.013-17.152-24.013zM533.441 947.993c-60.034 0-108.060-48.027-108.060-108.060 0-73.755 60.034-133.789 133.789-133.789 5.146 0 10.291 5.146 10.291 10.291s-5.146 10.291-10.291 10.291c-61.749 0-113.206 51.457-113.206 113.206 0 48.027 39.451 89.193 89.193 89.193 37.735 0 68.61-30.874 68.61-68.61 0-29.159-24.013-53.173-53.173-53.173-22.298 0-41.166 18.868-41.166 41.166 0 5.146-5.146 10.291-10.291 10.291s-10.291-5.146-10.291-10.291c0-32.59 27.444-60.034 60.034-60.034 39.451 0 73.755 32.59 73.755 73.755 0 46.312-41.166 85.762-89.193 85.762z" />
<glyph unicode="&#xe90c;" glyph-name="SVG-14" horiz-adv-x="1516" d="M404.159 604.417c-21.374 0-44.691 3.886-69.951 13.602-5.829 1.943-9.715 9.715-7.772 15.545s9.715 9.715 15.545 7.772c46.634-17.488 87.438-15.545 112.698 1.943 21.374 15.545 33.032 40.805 33.032 73.837 0 31.089-13.602 60.235-38.861 77.723-23.317 17.488-52.463 21.374-77.723 13.602-15.545-5.829-29.146-9.715-44.691-9.715-5.829 0-11.658 3.886-11.658 9.715s3.886 11.658 9.715 11.658c11.658 1.943 25.26 3.886 38.861 9.715 33.032 11.658 69.951 3.886 99.097-17.488 31.089-23.317 48.577-58.292 48.577-97.154 0-40.805-15.545-73.837-42.748-93.268-17.488-11.658-40.805-17.488-64.121-17.488zM116.584 101.161c-5.829 0-11.658 3.886-11.658 11.658 0 5.829 3.886 11.658 11.658 11.658 124.357 9.715 248.713 9.715 373.070 0 5.829 0 11.658-5.829 9.715-11.658 0-5.829-5.829-11.658-11.658-9.715-122.414 7.772-246.77 7.772-371.127-1.943 0 0 0 0 0 0zM1022.057 413.996h-221.51c-5.829 0-11.658 5.829-11.658 11.658s5.829 11.658 11.658 11.658h219.567c5.829 0 11.658-5.829 11.658-11.658 1.943-5.829-3.886-11.658-9.715-11.658zM1358.209 413.996h-209.852c-5.829 0-11.658 5.829-11.658 11.658s5.829 11.658 11.658 11.658h207.909c5.829 0 11.658-5.829 11.658-11.658 1.943-5.829-3.886-11.658-9.715-11.658zM604.296 413.996c-15.545 0-29.146 0-42.748 0-23.317 0-48.577 1.943-71.894 0-5.829 0-11.658 3.886-11.658 11.658 0 5.829 3.886 11.658 11.658 11.658 25.26 1.943 50.52 0 73.837 0 40.805-1.943 81.609-1.943 120.471 5.829 5.829 1.943 11.658-1.943 13.602-9.715 1.943-5.829-1.943-11.658-9.715-13.602-27.203-5.829-56.349-5.829-83.552-5.829zM557.662 188.6h-196.25c-5.829 0-11.658 5.829-11.658 11.658s5.829 11.658 11.658 11.658h196.25c5.829 0 11.658-5.829 11.658-11.658s-5.829-11.658-11.658-11.658zM338.095 413.996h-186.535c-5.829 0-11.658 5.829-11.658 11.658s5.829 11.658 11.658 11.658h186.535c5.829 0 11.658-5.829 11.658-11.658s-5.829-11.658-11.658-11.658zM268.144 188.6h-139.901c-5.829 0-11.658 5.829-11.658 11.658s5.829 11.658 11.658 11.658h139.901c5.829 0 11.658-5.829 11.658-11.658s-5.829-11.658-11.658-11.658zM120.471-64c-38.861 0-69.951 9.715-89.381 31.089-21.374 21.374-31.089 52.463-31.089 93.268 1.943 283.689 1.943 563.491 0 777.23 0 42.748 5.829 91.324 58.292 120.471 3.886 1.943 5.829 1.943 9.715 1.943 0 0 1.943 0 1.943 0h283.689c355.583 0 713.108 0 1068.691 0 25.26 0 79.666 0 87.438-62.178l1.943-9.715c1.943-19.431 3.886-40.805 3.886-60.235 0-155.446 0-310.892 0-464.395v-137.958c0-17.488 0-36.918 0-54.406 0-40.805 1.943-83.552-1.943-124.357-5.829-89.381-38.861-104.926-108.812-104.926-408.046 1.943-845.237 3.886-1282.429 0 0-5.829-1.943-5.829-1.943-5.829zM68.008 936.683c-36.918-21.374-44.691-54.406-44.691-99.097 1.943-213.738 1.943-493.541 0-777.23 0-34.975 7.772-60.235 23.317-75.78s40.805-23.317 75.78-23.317c437.192 3.886 874.383 3.886 1282.429 0 62.178 0 81.609 9.715 85.495 83.552 1.943 40.805 1.943 83.552 1.943 124.357 0 19.431 0 36.918 0 56.349v137.958c0 155.446 0 308.949 0 464.395 0 19.431-1.943 38.861-3.886 58.292l-1.943 9.715c-3.886 34.975-25.26 42.748-64.121 42.748 0 0 0 0 0 0-355.583 0-713.108 0-1068.691 0h-283.689c0-1.943-1.943-1.943-1.943-1.943zM1191.104 169.169h204.023v-106.869h-204.023v106.869zM147.674 711.287c0 58.292 46.634 106.869 106.869 106.869 58.292 0 106.869-46.634 106.869-106.869 0-58.292-46.634-106.869-106.869-106.869-58.292 1.943-106.869 48.577-106.869 106.869z" />
<glyph unicode="&#xe90d;" glyph-name="SVG-13" d="M569.406 299.055c-12.412-12.412-12.412-34.133 0-46.545 6.206-6.206 13.964-9.309 21.721-9.309s15.515 3.103 21.721 9.309l175.321 170.667c6.206 6.206 9.309 13.964 9.309 21.721s-3.103 15.515-9.309 21.721l-170.667 175.321c-12.412 12.412-31.030 12.412-43.442 1.552-12.412-12.412-12.412-29.479 0-41.891l121.018-121.018-443.733 4.655c-17.067 0-31.030-13.964-31.030-29.479 0-17.067 13.964-31.030 29.479-31.030l439.079-4.655-119.467-121.018zM505.794-64c282.376-3.103 515.103 223.418 518.206 505.794s-223.418 515.103-505.794 518.206c-282.376 3.103-515.103-223.418-518.206-505.794s223.418-515.103 505.794-518.206zM507.345-3.491c-248.242 3.103-448.388 207.903-445.285 456.145s207.903 448.388 456.145 445.285c248.242-3.103 448.388-207.903 445.285-456.145s-207.903-446.836-456.145-445.285z" />
<glyph unicode="&#xe90e;" glyph-name="SVG-12" horiz-adv-x="983" d="M968.6-19.323l-284.147 294.869c73.271 73.271 112.586 169.773 112.586 276.998 0 221.599-175.134 396.733-396.733 396.733s-389.585-175.134-389.585-396.733 175.134-396.733 396.733-396.733c96.503 0 180.496 33.955 255.553 91.141l284.147-294.869c5.361-5.361 10.723-5.361 10.723-5.361 5.361 0 10.723 0 10.723 5.361 5.361 10.723 5.361 23.232 0 28.593zM407.455 195.127c-198.366 0-357.417 159.051-357.417 357.417s159.051 357.417 357.417 357.417 357.417-159.051 357.417-357.417-159.051-357.417-357.417-357.417zM956.091-64c-1.787 0-10.723 0-17.871 8.935l-276.998 287.721c-78.632-57.187-162.625-87.567-253.766-87.567-228.747 0-407.455 178.709-407.455 407.455s176.921 407.455 402.094 407.455c228.747 0 407.455-178.709 407.455-407.455 0-107.225-37.529-201.941-109.012-276.998l276.998-287.721c8.935-8.935 8.935-23.232 3.574-37.529-3.574-8.935-10.723-14.297-25.019-14.297zM663.009 261.25l289.508-302.017c1.787-1.787 3.574-1.787 3.574-1.787s1.787 0 1.787 0c3.574 8.935 3.574 14.297 1.787 16.084v0l-289.508 302.017 7.148 7.148c71.483 71.483 110.799 166.199 110.799 269.85 0 216.237-169.773 386.010-386.010 386.010-212.663 0-380.649-169.773-380.649-386.010s169.773-386.010 386.010-386.010c89.354 0 171.56 30.38 248.405 89.354l7.148 5.361zM407.455 186.192c-201.941 0-368.14 164.412-368.14 368.14s164.412 366.353 368.14 366.353c201.941 0 368.14-164.412 368.14-368.14s-166.199-366.353-368.14-366.353zM407.455 899.239c-191.218 0-346.695-155.476-346.695-346.695s155.476-346.695 346.695-346.695c191.218 0 346.695 155.476 346.695 346.695s-155.476 346.695-346.695 346.695z" />
<glyph unicode="&#xe90f;" glyph-name="SVG-11" horiz-adv-x="1062" d="M1047.395 771.037l-509.301 187.163c-5.399 1.8-10.798 1.8-14.397 0l-509.301-187.163c-1.8 0-3.599-1.8-5.399-1.8-5.399-3.599-8.998-10.798-8.998-17.996v-604.682c0-8.998 5.399-16.197 14.397-19.796l509.301-188.963c1.8 0 5.399-1.8 7.199-1.8s5.399 0 7.199 1.8v0l509.301 188.963c8.998 3.599 14.397 10.798 14.397 19.796v604.682c0 8.998-5.399 16.197-14.397 19.796zM509.301-11.81l-467.909 172.766v559.691l95.381-35.993v-255.55c0-8.998 5.399-16.197 14.397-19.796l228.555-84.583c1.8 0 5.399-1.8 7.199-1.8 3.599 0 8.998 1.8 12.598 3.599 5.399 3.599 8.998 10.798 8.998 17.996v241.153l100.78-37.793v-559.691zM365.329 601.87v-226.756l-185.364 68.387v226.756l185.364-68.387zM219.557 700.851l167.367 61.188 167.367-61.188-167.367-61.188-167.367 61.188zM530.896 585.673l-82.784 30.594 174.566 64.787c8.998 3.599 14.397 10.798 14.397 19.796s-5.399 16.197-14.397 19.796l-228.555 84.583c-5.399 1.8-10.798 1.8-14.397 0l-221.357-82.784-75.585 28.794 448.112 165.568 448.112-165.568-448.112-165.568zM1018.601 160.956l-467.909-172.766v559.691l467.909 172.766v-559.691z" />
<glyph unicode="&#xe910;" glyph-name="SVG-10" horiz-adv-x="1062" d="M1038.979 960h-785.702c-12.255 0-21.787-9.532-21.787-23.149v-453.447h-208.34c-13.617 0-23.149-9.532-23.149-23.149v-386.723c0-76.255 62.638-138.894 138.894-138.894 1.362 0 785.702 0 785.702 0 76.255 0 138.894 62.638 138.894 138.894v863.319c-1.362 13.617-12.255 23.149-24.511 23.149zM46.298 73.532v364.936h185.191v-363.574c0-51.745-42.213-92.596-92.596-92.596-51.745-1.362-92.596 40.851-92.596 91.234zM1015.83 73.532c0-51.745-42.213-92.596-92.596-92.596h-682.213c21.787 24.511 35.404 57.191 35.404 92.596v840.17h739.404v-840.17zM614.128 695.83h292.766c12.255 0 23.149 9.532 23.149 23.149 0 12.255-9.532 23.149-23.149 23.149h-292.766c-12.255 0-23.149-9.532-23.149-23.149 1.362-12.255 10.894-23.149 23.149-23.149zM614.128 445.277h292.766c12.255 0 23.149 9.532 23.149 23.149s-9.532 23.149-23.149 23.149h-292.766c-12.255 0-23.149-9.532-23.149-23.149s10.894-23.149 23.149-23.149zM614.128 194.723h292.766c12.255 0 23.149 9.532 23.149 23.149s-9.532 23.149-23.149 23.149h-292.766c-12.255 0-23.149-9.532-23.149-23.149 1.362-12.255 10.894-23.149 23.149-23.149zM404.426 671.319c4.085-4.085 10.894-6.809 16.34-6.809 0 0 0 0 0 0 6.809 0 12.255 2.723 16.34 6.809l125.277 137.532c8.17 9.532 8.17 23.149-1.362 32.681-9.532 8.17-23.149 8.17-32.681-1.362l-108.936-118.468-32.681 34.043c-8.17 9.532-23.149 9.532-32.681 1.362s-9.532-23.149-1.362-32.681l51.745-53.106zM529.702 577.362l-108.936-118.468-34.043 35.404c-8.17 9.532-23.149 9.532-32.681 1.362s-9.532-23.149-1.362-32.681l50.383-53.106c4.085-4.085 10.894-6.809 16.34-6.809 0 0 0 0 0 0 6.809 0 12.255 2.723 16.34 6.809l125.277 137.532c8.17 9.532 8.17 23.149-1.362 32.681-8.17 6.809-21.787 6.809-29.957-2.723zM529.702 315.915l-108.936-118.468-34.043 35.404c-8.17 9.532-23.149 9.532-32.681 1.362s-9.532-23.149-1.362-32.681l50.383-53.106c4.085-4.085 10.894-6.809 16.34-6.809 0 0 0 0 0 0 6.809 0 12.255 2.723 16.34 6.809l125.277 137.532c8.17 9.532 8.17 23.149-1.362 32.681-8.17 6.809-21.787 6.809-29.957-2.723z" />
<glyph unicode="&#xe911;" glyph-name="SVG-09" horiz-adv-x="1485" d="M1477.799 943.13c6.748-11.809 6.748-23.618 6.748-37.114 0-91.097 0-183.881 0-274.979 0-65.792-35.427-104.593-102.906-109.654-20.244-1.687-26.992-5.061-28.679-26.992-15.183-172.072-92.784-313.779-226.056-423.433-145.081-116.402-310.405-156.89-492.6-126.524-151.829 25.305-276.666 102.906-372.824 224.369-77.601 96.158-121.463 207.499-129.898 332.336-1.687 15.183-6.748 20.244-21.931 20.244-77.601 6.748-109.654 40.488-109.654 118.089 0 87.723 0 173.759 0 259.796 0 43.862 5.061 50.61 48.923 50.61 249.674 0 497.661 0 747.334 0 11.809 0 163.638 0 175.446 0 15.183 0 18.557-10.122 18.557-21.931s-3.374-40.488-3.374-38.801c0 3.374-656.237 0-907.598 1.687-18.557 0-21.931-8.435-21.931-25.305 0-72.54 0-146.768 0-219.308 0-52.297 11.809-65.792 65.792-65.792 413.311 0 824.936 0 1238.247 0 8.435 0 16.87-1.687 25.305 0 23.618 3.374 40.488 16.87 40.488 42.175 0 82.662 0 165.325 0 246.3 0 13.496-5.061 18.557-16.87 18.557-109.654 0-355.954 0-369.45 0-16.87-1.687-21.931 3.374-23.618 21.931-1.687 38.801-3.374 38.801 37.114 38.801 8.435 0 124.837 0 175.446 0 79.288-1.687 158.577-1.687 237.865-1.687 0-3.374 5.061-3.374 10.122-3.374zM745.647 518.010c-175.446 0-352.58 0-528.026 0-16.87 0-33.74 1.687-28.679-25.305 11.809-67.479 25.305-134.959 57.357-194.003 106.28-190.629 266.544-298.596 489.226-303.657 146.768-3.374 273.292 47.236 381.259 145.081 104.593 94.471 158.577 214.247 178.82 352.58 3.374 23.618-8.435 23.618-25.305 23.618-175.446 1.687-349.206 1.687-524.652 1.687zM1477.799 943.13c-5.061 0-10.122 0-11.809 6.748 10.122 23.618 10.122 0 11.809-6.748zM742.273 430.287c-109.654 0-202.438-92.784-202.438-199.064 0-109.654 91.097-202.438 202.438-202.438 116.402 0 200.751 92.784 204.125 200.751-1.687 107.967-94.471 200.751-204.125 200.751zM821.562 109.759c-52.297-35.427-124.837-28.679-168.699 6.748-52.297 42.175-67.479 109.654-40.488 172.072 3.374 6.748 5.061 10.122 13.496 6.748v-1.687c0 0 0 0 0 0-1.687-10.122-3.374-20.244-1.687-30.366 0-35.427 30.366-70.853 64.105-79.288 30.366-8.435 75.914 15.183 89.41 43.862 15.183 30.366 6.748 77.601-18.557 99.532-30.366 26.992-65.792 26.992-101.219 3.374-1.687 13.496 6.748 16.87 16.87 21.931 64.105 37.114 148.455 13.496 188.942-53.984 40.488-62.418 20.244-148.455-42.175-188.942zM630.932 300.389c-1.687-1.687-5.061-5.061-6.748-6.748-5.061 6.748-3.374 15.183 1.687 16.87 6.748 3.374 5.061-5.061 5.061-10.122z" />
<glyph unicode="&#xe912;" glyph-name="SVG-08" horiz-adv-x="1153" d="M883.585 616.384c17.124-42.239 11.416-84.477 7.991-124.433 0-3.425-3.425-9.133-6.849-10.274-25.115-13.699-13.699-31.964-1.142-41.097 52.513-38.814 53.654-93.61 52.513-150.689-2.283-90.185 0-180.37 0-270.555 0-55.938-25.115-82.194-81.052-82.194-81.052 0-162.105 0-243.157 0-26.256 0-46.805 10.274-62.787 29.681-4.566 5.708-12.557 10.274-19.407 11.416-74.203 13.699-138.132 45.663-187.22 105.026-9.133 11.416-23.973 20.548-37.672 25.115-22.832 7.991-34.247 22.832-31.964 45.663 1.142 15.982-5.708 20.548-18.265 26.256-132.424 50.23-220.326 142.698-247.724 280.829-29.681 156.397 36.531 302.52 176.945 389.28 94.751 59.362 198.635 71.92 305.944 52.513 84.477-15.982 156.397-59.362 211.193-126.716 11.416-13.699 19.407-26.256 42.239-18.265 9.133 3.425 21.69-6.849 33.106-10.274 9.133-2.283 18.265-6.849 26.256-4.566 58.221 19.407 97.035 55.938 106.167 119.866 3.425 23.973 11.416 46.805 21.69 68.495 12.557 28.54 41.097 35.389 68.495 21.69 42.239-20.548 69.637-54.796 92.468-93.61 41.097-69.637 69.637-143.839 62.787-228.317-4.566-52.513-43.38-73.061-90.185-47.946-27.398 14.841-54.796 29.681-83.336 41.097-34.247 13.699-67.353 13.699-97.035-7.991zM537.686 276.192c0 21.69 1.142 41.097 0 60.504-2.283 37.672 13.699 67.353 41.097 91.327 9.133 7.991 15.982 18.265 21.69 28.54 2.283 4.566 1.142 14.841-2.283 17.124-19.407 10.274-20.548 27.398-20.548 46.805 1.142 17.124 0 35.389 0 52.513 0 35.389 10.274 45.663 44.522 44.522 18.265-1.142 27.398 6.849 34.247 21.69 12.557 25.115 25.115 50.23 38.814 74.203 7.991 13.699 5.708 22.832-3.425 35.389-99.318 126.716-234.025 160.963-385.855 126.716-175.804-39.955-309.369-211.193-275.122-399.554 22.832-128.999 99.318-213.476 213.476-267.13 35.389-17.124 36.531-14.841 47.946 23.973 9.133 30.823 33.106 43.38 63.929 36.531 14.841-3.425 30.823-1.142 45.663 0 11.416 1.142 21.69 5.708 33.106 5.708 33.106 2.283 66.212 1.142 102.742 1.142zM562.8 181.44c0-55.938 0-111.875 0-168.954 0-37.672 13.699-51.371 50.23-51.371 81.052 0 162.105 0 243.157 0 42.239 0 57.079 14.841 57.079 58.221 0 105.026 0 208.91 0 313.935 0 30.823-11.416 54.796-34.247 76.486-12.557 11.416-22.832 26.256-29.681 41.097-6.849 15.982-14.841 19.407-29.681 19.407-55.938-1.142-111.875 0-168.954 1.142-14.841 0-20.548-5.708-27.398-18.265-9.133-17.124-20.548-34.247-33.106-46.805-18.265-18.265-28.54-37.672-28.54-63.929 1.142-53.654 1.142-107.309 1.142-160.963zM373.298 236.236c-38.814 19.407-45.663 17.124-58.221-14.841-6.849-17.124-11.416-35.389-18.265-53.654-6.849-20.548 0-33.106 20.548-37.672 20.548-3.425 31.964-17.124 44.522-31.964 26.256-33.106 60.504-58.221 99.318-76.486 14.841-6.849 25.115-5.708 31.964 9.133 14.841 30.823 36.531 61.645 42.239 93.61 6.849 39.955 1.142 82.194 1.142 122.149-52.513 18.265-100.459 7.991-150.689-6.849 9.133-36.531-1.142-68.495-15.982-98.176-3.425-6.849-14.841-10.274-22.832-15.982 0 9.133-2.283 18.265 0 26.256 9.133 28.54 18.265 57.079 26.256 84.477zM1131.309 657.48c-4.566 63.929-22.832 122.149-55.938 175.804-20.548 33.106-47.946 63.929-76.486 90.185-23.973 22.832-47.946 12.557-54.796-19.407-3.425-17.124-4.566-36.531-3.425-53.654 4.566-51.371 21.69-99.318 46.805-143.839 22.832-42.239 47.946-84.477 94.751-107.309 19.407-9.133 35.389-2.283 41.097 17.124 4.566 13.699 5.708 27.398 7.991 41.097zM603.897 591.269c0-29.681-1.142-57.079 1.142-84.477 0-4.566 10.274-12.557 15.982-12.557 77.628-1.142 155.255-1.142 231.741 0 5.708 0 17.124 10.274 17.124 17.124 2.283 20.548 1.142 41.097 1.142 61.645 0 11.416-4.566 18.265-17.124 18.265-82.194 0-163.246 0-250.007 0zM921.258 812.736c-4.566-7.991-7.991-13.699-12.557-18.265-19.407-19.407-38.814-38.814-60.504-55.938-13.699-10.274-33.106-14.841-49.088-22.832-4.566-2.283-11.416-7.991-11.416-12.557-1.142-27.398 0-55.938 0-89.043 23.973 4.566 45.663 3.425 61.645 13.699 43.38 27.398 86.76 42.239 136.99 21.69 1.142 0 2.283 1.142 4.566 2.283-12.557 25.115-27.398 50.23-38.814 76.486-11.416 25.115-19.407 52.513-30.823 84.477zM763.719 618.667c0 34.247 1.142 67.353-1.142 100.459 0 5.708-7.991 13.699-13.699 15.982-4.566 1.142-14.841-2.283-17.124-6.849-19.407-35.389-37.672-70.778-58.221-108.45 31.964-1.142 60.504-1.142 90.185-1.142zM536.544 42.167c-2.283 1.142-3.425 1.142-5.708 2.283-6.849-12.557-14.841-23.973-23.973-39.955 13.699 0 20.548 0 29.681 0 0 13.699 0 25.115 0 37.672zM536.544 42.167c0-11.416 0-23.973 0-37.672-9.133 0-15.982 0-29.681 0 9.133 15.982 17.124 27.398 23.973 39.955 2.283-1.142 3.425-1.142 5.708-2.283zM736.321-24.045c-14.841 0-30.823-1.142-45.663 0-5.708 0-10.274 5.708-15.982 9.133 4.566 4.566 9.133 14.841 13.699 14.841 31.964 1.142 63.929 1.142 94.751 0 4.566 0 7.991-9.133 12.557-14.841-4.566-3.425-10.274-9.133-14.841-9.133-14.841 0-29.681 0-44.522 0zM732.896 394.916c15.982-1.142 33.106-1.142 49.088-2.283 4.566-1.142 9.133-6.849 13.699-10.274-4.566-3.425-9.133-10.274-13.699-10.274-31.964 0-62.787 0-94.751 1.142-4.566 0-9.133 6.849-13.699 10.274 5.708 3.425 10.274 9.133 15.982 10.274 14.841 1.142 29.681 1.142 43.38 1.142 0 0 0 0 0 0zM737.463 173.449c-14.841 0-30.823-1.142-45.663 0-5.708 1.142-11.416 6.849-17.124 10.274 5.708 3.425 11.416 10.274 17.124 10.274 29.681 1.142 60.504 1.142 91.327 0 4.566 0 9.133-6.849 13.699-10.274-4.566-3.425-9.133-10.274-13.699-11.416-14.841 1.142-30.823 1.142-45.663 1.142 0 0 0 0 0 0zM734.038 78.698c-9.133 0-18.265-1.142-27.398 0-4.566 1.142-7.991 6.849-12.557 10.274 3.425 3.425 6.849 10.274 11.416 11.416 20.548 1.142 41.097 1.142 61.645 0 4.566 0 9.133-6.849 13.699-9.133-4.566-3.425-9.133-10.274-14.841-11.416-10.274-2.283-21.69-1.142-31.964-1.142zM727.188 268.201c5.708 11.416 9.133 22.832 12.557 22.832 12.557 1.142 27.398 2.283 36.531-4.566 10.274-6.849 1.142-17.124-7.991-18.265-11.416-1.142-22.832 0-41.097 0z" />
<glyph unicode="&#xe913;" glyph-name="SVG-32" horiz-adv-x="727" d="M371.613 968.258c-191.587 0-346.839-155.252-346.839-346.839 0-260.955 346.839-644.129 346.839-644.129s346.839 383.174 346.839 644.129c0 191.587-155.252 346.839-346.839 346.839zM371.613 497.548c-67.716 0-123.871 56.155-123.871 123.871s56.155 123.871 123.871 123.871 123.871-56.155 123.871-123.871-56.155-123.871-123.871-123.871z" />
<glyph unicode="&#xe914;" glyph-name="SVG-31" horiz-adv-x="931" d="M884.364 773.818h-186.182v46.545c0 76.901-62.735 139.636-139.636 139.636h-186.182c-76.901 0-139.636-62.735-139.636-139.636v-46.545h-186.182c-26.308 0-46.545-20.237-46.545-46.545s20.237-46.545 46.545-46.545h46.545v-605.091c0-76.901 62.735-139.636 139.636-139.636h465.455c76.901 0 139.636 62.735 139.636 139.636v605.091h46.545c26.308 0 46.545 20.237 46.545 46.545s-20.237 46.545-46.545 46.545zM325.818 820.364c0 26.308 20.237 46.545 46.545 46.545h186.182c26.308 0 46.545-20.237 46.545-46.545v-46.545h-279.273v46.545zM744.727 75.636c0-26.308-20.237-46.545-46.545-46.545h-465.455c-26.308 0-46.545 20.237-46.545 46.545v605.091h558.545v-605.091z" />
<glyph unicode="&#xe915;" glyph-name="SVG-30" d="M1024 856.465l-102.116 103.535-409.884-408.465-408.465 408.465-103.535-103.535 408.465-408.465-408.465-409.884 103.535-102.116 408.465 408.465 409.884-408.465 102.116 102.116-408.465 409.884z" />
<glyph unicode="&#xe916;" glyph-name="SVG-29" horiz-adv-x="539" d="M525.474-50.526c7.485 7.485 7.485 19.462 0 26.947l-471.579 471.579 471.579 471.579c7.485 7.485 7.485 19.462 0 26.947s-19.462 7.485-26.947 0l-485.053-485.053c-2.994-2.994-5.988-8.982-5.988-13.474s1.497-10.48 5.988-13.474l485.053-485.053c4.491-4.491 8.982-5.988 13.474-5.988s10.48 1.497 13.474 5.988zM512-64c-7.485 0-13.474 2.994-19.462 7.485l-485.053 485.053c-4.491 5.988-7.485 11.977-7.485 19.462s2.994 13.474 7.485 19.462l485.053 485.053c10.48 10.48 26.947 10.48 37.427 0s10.48-26.947 0-37.427l-465.591-467.088 465.591-465.591c10.48-10.48 10.48-26.947 0-37.427v0c-4.491-5.988-10.48-8.982-17.965-8.982zM512 945.029c-2.994 0-5.988-1.497-8.982-2.994l-485.053-485.053c-1.497-2.994-2.994-5.988-2.994-8.982s1.497-5.988 2.994-8.982l485.053-485.053c4.491-4.491 11.977-4.491 16.468 0v0c4.491 4.491 4.491 11.977 0 16.468l-476.070 477.567 477.567 476.070c4.491 4.491 4.491 11.977 0 16.468-2.994 2.994-5.988 4.491-8.982 4.491z" />
<glyph unicode="&#xe917;" glyph-name="SVG-28" horiz-adv-x="1128" d="M1042.147 874.451c-114.066 114.066-298.127 114.066-412.192 0l-566.441-566.441c-85.549-85.549-85.549-224.243 0-308.496 69.995-69.995 176.284-81.661 259.241-36.294 9.073 0 16.851 3.889 23.332 10.37l566.441 566.441c57.033 57.033 57.033 149.063 0 206.096s-149.063 57.033-206.096 0l-462.744-464.041c-14.258-14.258-14.258-37.59 0-51.848s37.59-14.258 51.848 0l464.041 464.041c28.516 28.516 75.18 28.516 102.4 0 28.516-28.516 28.516-75.18 0-102.4l-540.516-541.813c-57.033-57.033-149.063-57.033-206.096 0s-57.033 149.063 0 206.096l566.441 566.441c85.549 85.549 224.243 85.549 308.496 0 85.549-85.549 85.549-224.243 0-308.496l-514.592-514.592c-14.258-14.258-14.258-37.59 0-51.848s37.59-14.258 51.848 0l514.592 514.592c114.066 114.066 114.066 298.127 0 412.192z" />
<glyph unicode="&#xe918;" glyph-name="SVG-27" horiz-adv-x="1060" d="M985.839 323.975c46.642 65.723 72.083 144.166 72.083 222.609 2.12 228.969-205.648 413.416-457.938 413.416-173.847 0-334.973-91.164-411.296-231.089-114.484-76.323-188.687-197.168-188.687-332.853 0-78.443 25.441-156.886 72.083-222.609-8.48-97.524-31.801-171.727-67.843-205.648-6.36-6.36-6.36-12.72-4.24-21.201 2.12-6.36 8.48-10.6 14.841-10.6 0 0 2.12 0 2.12 0 6.36 0 148.406 21.201 252.29 80.563 59.362-23.321 120.845-36.041 186.567-36.041 150.526 0 284.091 65.723 368.894 167.487 97.524-44.522 207.768-59.362 212.008-61.482 0 0 2.12 0 2.12 0 6.36 0 12.72 4.24 14.841 10.6 4.24 6.36 2.12 14.841-4.24 21.201-29.681 33.921-53.002 106.004-63.602 205.648v0zM457.938 16.563c-50.882 0-99.644 8.48-148.406 23.321 59.362 36.041 59.362 40.282 59.362 48.762 0 6.36-4.24 12.72-8.48 14.841-8.48 4.24-19.081 2.12-23.321-4.24-8.48-6.36-44.522-29.681-76.323-48.762-65.723-40.282-152.646-61.482-203.528-72.083 31.801 55.122 44.522 133.565 50.882 197.168 0 4.24 0 8.48-4.24 12.72-44.522 61.482-69.963 133.565-69.963 207.768 0 127.205 72.083 239.569 180.207 309.532 6.36 4.24 12.72 8.48 21.201 12.72 2.12 0 4.24 2.12 4.24 2.12 6.36 4.24 14.841 8.48 23.321 10.6 2.12 2.12 6.36 2.12 8.48 4.24 8.48 4.24 14.841 6.36 23.321 10.6 2.12 0 6.36 2.12 8.48 2.12 6.36 2.12 12.72 4.24 19.081 6.36 2.12 0 6.36 2.12 8.48 2.12 8.48 2.12 16.961 4.24 25.441 6.36 2.12 0 6.36 2.12 8.48 2.12 8.48 2.12 14.841 2.12 23.321 4.24 2.12 0 4.24 0 6.36 0 8.48 0 19.081 2.12 27.561 2.12 2.12 0 4.24 0 6.36 0 10.6 0 19.081 0 29.681 0 233.209 0 424.017-169.607 424.017-377.375 0-8.48 0-16.961 0-25.441 0-2.12 0-4.24 0-6.36 0-8.48-2.12-14.841-2.12-23.321 0 0 0-2.12 0-2.12-2.12-8.48-2.12-16.961-4.24-23.321 0-2.12-2.12-4.24-2.12-6.36-2.12-6.36-4.24-14.841-6.36-21.201 0-2.12-2.12-4.24-2.12-6.36-2.12-6.36-4.24-12.72-8.48-19.081-2.12-2.12-2.12-4.24-4.24-8.48-2.12-6.36-6.36-12.72-10.6-21.201 0-2.12-2.12-4.24-4.24-6.36-4.24-6.36-6.36-10.6-10.6-16.961-2.12-2.12-2.12-4.24-4.24-6.36-4.24-6.36-8.48-12.72-12.72-19.081-76.323-99.644-205.648-165.366-351.934-165.366v0zM848.033 177.689c0 0 2.12 2.12 2.12 4.24 4.24 6.36 8.48 12.72 12.72 19.081 2.12 4.24 4.24 6.36 6.36 10.6s4.24 8.48 6.36 12.72c2.12 4.24 4.24 6.36 6.36 10.6 2.12 6.36 4.24 10.6 6.36 16.961 2.12 4.24 4.24 8.48 4.24 12.72 2.12 4.24 4.24 10.6 6.36 14.841s2.12 6.36 4.24 10.6 2.12 10.6 4.24 16.961c0 2.12 2.12 4.24 2.12 8.48 2.12 8.48 4.24 14.841 4.24 23.321 0 2.12 0 4.24 2.12 8.48 0 6.36 2.12 12.72 2.12 19.081 0 2.12 0 4.24 0 8.48 0 8.48 0 16.961 0 25.441 0 228.969-205.648 413.416-457.938 413.416-8.48 0-16.961 0-25.441 0-2.12 0-6.36 0-8.48 0-4.24 0-10.6 0-14.841-2.12-4.24 0-8.48 0-10.6-2.12-4.24 0-8.48-2.12-12.72-2.12s-8.48-2.12-12.72-2.12c-4.24 0-6.36-2.12-10.6-2.12s-8.48-2.12-12.72-2.12c-2.12 0-6.36-2.12-8.48-2.12-4.24-2.12-10.6-2.12-14.841-4.24-2.12 0-4.24-2.12-6.36-2.12-19.081-6.36-36.041-12.72-55.122-19.081-2.12 0-2.12 0-4.24-2.12-2.12 0-4.24-2.12-4.24-2.12 78.443 97.524 207.768 159.006 345.573 159.006 233.209 0 424.017-169.607 424.017-377.375 0-74.203-23.321-146.286-69.963-207.768-2.12-4.24-4.24-8.48-4.24-12.72 4.24-61.482 19.081-139.925 50.882-197.168-42.402 6.36-101.764 21.201-156.886 44.522v0z" />
<glyph unicode="&#xe919;" glyph-name="SVG-26" horiz-adv-x="994" d="M964.017 263.766c21.423 25.707 29.992 55.699 29.992 85.69-2.142 32.134-14.996 57.841-27.849 72.837 12.854 34.276 19.28 89.975-27.849 130.678-34.276 29.992-92.117 44.987-171.381 40.703-55.699-2.142-102.828-12.854-104.971-12.854v0c-10.711-2.142-21.423-4.285-34.276-6.427 0 12.854 2.142 47.13 25.707 124.251 29.992 92.117 27.849 160.669-6.427 207.799-32.134 49.272-89.975 53.556-107.113 53.556-14.996 0-29.992-6.427-40.703-19.28-23.565-27.849-21.423-79.264-17.138-102.828-27.849-74.979-107.113-261.356-173.523-312.77-2.142 0-2.142-2.142-4.285-2.142-19.28-21.423-32.134-42.845-42.845-62.126-12.854 6.427-27.849 10.711-42.845 10.711h-128.536c-49.272 0-89.975-40.703-89.975-89.975v-347.046c0-49.272 40.703-89.975 89.975-89.975h130.678c19.28 0 36.418 6.427 51.414 17.138l49.272-6.427c8.569 0 145.674-19.28 284.921-14.996 25.707-2.142 49.272-2.142 70.695-2.142 38.561 0 70.695 2.142 98.544 8.569 66.41 12.854 109.255 40.703 132.82 83.548 17.138 32.134 17.138 62.126 14.996 81.406 42.845 38.561 49.272 81.406 49.272 111.397 0 14.996-4.285 29.992-8.569 40.703zM89.975 2.41c-17.138 0-32.134 14.996-32.134 32.134v347.046c0 17.138 14.996 32.134 32.134 32.134h130.678c17.138 0 32.134-14.996 32.134-32.134v-347.046c0-17.138-14.996-32.134-32.134-32.134h-130.678zM910.46 289.473c-8.569-8.569-10.711-23.565-4.285-34.276 0 0 8.569-14.996 10.711-36.418 2.142-27.849-12.854-53.556-40.703-74.979-10.711-8.569-14.996-21.423-10.711-32.134 0 0 8.569-27.849-6.427-55.699-14.996-25.707-47.13-44.987-94.259-53.556-38.561-8.569-92.117-10.711-156.385-4.285 0 0-2.142 0-2.142 0-137.105-2.142-276.351 14.996-278.494 14.996v0l-21.423 2.142c2.142 6.427 2.142 12.854 2.142 19.28v347.046c0 8.569-2.142 17.138-4.285 25.707 4.285 14.996 14.996 47.13 40.703 72.837 96.402 77.121 190.661 332.050 194.946 344.904 2.142 4.285 2.142 8.569 2.142 14.996-4.285 23.565-2.142 53.556 2.142 62.126 10.711 0 42.845-4.285 59.983-27.849 21.423-29.992 21.423-83.548-2.142-156.385-36.418-109.255-38.561-167.096-10.711-190.661 14.996-12.854 32.134-12.854 47.13-8.569 12.854 2.142 25.707 6.427 36.418 6.427 0 0 2.142 0 2.142 0 66.41 14.996 184.234 23.565 224.937-14.996 34.276-32.134 10.711-72.837 6.427-77.121-8.569-12.854-6.427-27.849 4.285-36.418 0 0 23.565-21.423 23.565-49.272 2.142-19.28-8.569-38.561-25.707-57.841z" />
<glyph unicode="&#xe91a;" glyph-name="SVG-25" horiz-adv-x="1942" d="M1915.586 933.517c-14.713 14.713-38.253 14.713-52.966 0l-891.586-891.586-894.529 891.586c-14.713 14.713-38.253 14.713-52.966 0s-14.713-38.253 0-52.966l918.069-921.011c5.885-5.885 17.655-11.77 26.483-11.77s17.655 2.943 26.483 11.77l921.011 923.954c5.885 5.885 11.77 17.655 11.77 26.483s-2.943 17.655-11.77 23.54zM971.034-64c-14.713 0-26.483 5.885-35.31 14.713l-921.011 921.011c-20.598 20.598-20.598 52.966 0 73.563s52.966 20.598 73.563 0l882.759-882.759 882.759 882.759c8.828 8.828 23.54 14.713 38.253 14.713 0 0 0 0 0 0 14.713 0 26.483-5.885 35.31-14.713s14.713-23.54 14.713-35.31c0-14.713-5.885-26.483-14.713-35.31l-921.011-921.011c-8.828-11.77-20.598-17.655-35.31-17.655zM50.023 930.575c-2.943 0-8.828-2.943-14.713-5.885-8.828-8.828-8.828-23.54 0-32.368l918.069-921.011c8.828-8.828 23.54-8.828 32.368 0l921.011 921.011c2.943 5.885 5.885 11.77 5.885 17.655s-2.943 11.77-5.885 14.713v0c-5.885 2.943-8.828 5.885-14.713 5.885v0c-5.885 0-11.77-2.943-14.713-5.885l-906.299-906.299-903.356 906.299c-5.885 2.943-11.77 5.885-17.655 5.885z" />
<glyph unicode="&#xe91b;" glyph-name="SVG-24" horiz-adv-x="843" d="M531.922 248.778c0 5.977-1.992 9.961-3.984 15.938s-7.969 9.961-15.938 9.961c-7.969 0-13.946-1.992-19.922-7.969-1.992-1.992-3.984-5.977-3.984-5.977v-171.331c0 0 1.992-1.992 1.992-1.992 3.984-5.977 9.961-9.961 17.93-9.961 11.953-1.992 19.922 1.992 21.914 13.946 0 1.992 0 5.977 0 7.969 1.992 49.805 1.992 99.611 1.992 149.416zM531.922 248.778c0 5.977-1.992 9.961-3.984 15.938s-7.969 9.961-15.938 9.961c-7.969 0-13.946-1.992-19.922-7.969-1.992-1.992-3.984-5.977-3.984-5.977v-171.331c0 0 1.992-1.992 1.992-1.992 3.984-5.977 9.961-9.961 17.93-9.961 11.953-1.992 19.922 1.992 21.914 13.946 0 1.992 0 5.977 0 7.969 1.992 49.805 1.992 99.611 1.992 149.416zM719.191 501.79c-199.222 3.984-396.451 3.984-595.673 0-67.735 0-123.518-57.774-123.518-125.51v-310.786c0-69.728 55.782-125.51 123.518-127.502 199.222-3.984 396.451-3.984 595.673 0 69.728 1.992 123.518 57.774 123.518 127.502v310.786c0 67.735-53.79 125.51-123.518 125.51zM181.292 37.603h-55.782v322.739h-59.767v53.79h175.315v-53.79h-59.767v-322.739zM386.49 171.082v-133.479h-49.805v29.883c-1.992-1.992-1.992-1.992-3.984-3.984-9.961-11.953-23.907-21.914-39.844-27.891-7.969-1.992-15.938-3.984-23.907-1.992-11.953 1.992-17.93 7.969-23.907 17.93-3.984 9.961-5.977 19.922-5.977 29.883 0 37.852 0 233.089 0 235.082h49.805c0-1.992 0-141.447 0-211.175 0-3.984 0-7.969 0-11.953 1.992-9.961 7.969-13.946 17.93-9.961s17.93 9.961 23.907 19.922c0 1.992 0 3.984 0 5.977v207.191h49.805v-145.432zM579.735 63.502c-5.977-19.922-21.914-29.883-43.829-29.883-17.93 0-31.875 7.969-43.829 19.922-1.992 1.992-3.984 5.977-3.984 5.977v-21.914h-49.805v378.521h49.805v-123.518c0 0 1.992 5.977 5.977 7.969 7.969 7.969 17.93 15.938 29.883 17.93 19.922 3.984 41.837-1.992 51.798-23.907 5.977-13.946 7.969-27.891 7.969-41.837 0-53.79 0-105.588 0-159.377 0-9.961 0-19.922-3.984-29.883zM767.004 75.455c-7.969-25.899-27.891-39.844-53.79-43.829-15.938-1.992-33.868-1.992-47.813 3.984-21.914 9.961-33.868 27.891-37.852 49.805-1.992 9.961-3.984 21.914-3.984 31.875 0 41.837 0 83.673 0 123.518 0 21.914 5.977 41.837 19.922 57.774 17.93 17.93 37.852 25.899 63.751 23.907 7.969 0 15.938-1.992 21.914-3.984 23.907-7.969 35.86-25.899 41.837-49.805 1.992-9.961 1.992-17.93 1.992-27.891 0-21.914 0-69.728 0-69.728h-97.619v-69.728c0-11.953 9.961-21.914 21.914-21.914s21.914 9.961 21.914 21.914v35.86h51.798c1.992 0 3.984-43.829-3.984-61.759zM721.183 252.763c0 11.953-9.961 21.914-21.914 21.914s-21.914-9.961-21.914-21.914v-39.844h45.821v39.844zM527.938 264.716c-1.992 5.977-7.969 9.961-15.938 9.961s-13.946-1.992-19.922-7.969c-1.992-1.992-3.984-5.977-3.984-5.977v-171.331c0 0 1.992-1.992 1.992-1.992 3.984-5.977 9.961-9.961 17.93-9.961 11.953-1.992 19.922 1.992 21.914 13.946 0 1.992 0 5.977 0 7.969 0 49.805 0 99.611 0 149.416 1.992 5.977 0 11.953-1.992 15.938zM657.432 860.389v-280.903h-51.798v29.883c-5.977-5.977-9.961-9.961-15.938-15.938-9.961-7.969-19.922-13.946-33.868-17.93-19.922-3.984-35.86 1.992-41.837 21.914-1.992 5.977-3.984 13.946-3.984 19.922v243.051h51.798v-213.167c0-1.992 0-5.977 0-7.969 1.992-7.969 7.969-13.946 15.938-9.961 9.961 3.984 17.93 9.961 25.899 19.922 0 1.992 0 3.984 0 5.977v205.198h53.79zM229.105 812.576c-11.953 47.813-35.86 147.424-35.86 147.424h-59.767c0 0 45.821-151.409 65.743-217.152 0-1.992 1.992-5.977 1.992-7.969v-153.401h53.79v153.401c0 1.992 0 5.977 1.992 7.969 19.922 65.743 65.743 217.152 65.743 217.152h-59.767c0 0-23.907-99.611-33.868-147.424zM392.467 868.358v0c-41.837 0-73.712-33.868-73.712-73.712v-145.432c0-41.837 33.868-73.712 73.712-73.712 41.837 0 73.712 33.868 73.712 73.712v143.44c1.992 41.837-31.875 75.704-73.712 75.704zM414.381 645.23c0-11.953-9.961-21.914-21.914-21.914s-21.914 9.961-21.914 21.914v151.409c0 11.953 9.961 21.914 21.914 21.914s21.914-9.961 21.914-21.914v-151.409z" />
<glyph unicode="&#xe91c;" glyph-name="SVG-23" horiz-adv-x="956" d="M938.667 891.733h-119.467v51.2c0 9.19-7.877 17.067-17.067 17.067h-119.467c-9.19 0-17.067-7.877-17.067-17.067v-51.2h-375.467v51.2c0 9.19-7.877 17.067-17.067 17.067h-119.467c-9.19 0-17.067-7.877-17.067-17.067v-51.2h-119.467c-9.19 0-17.067-7.877-17.067-17.067v-921.6c0-9.19 7.877-17.067 17.067-17.067h921.6c9.19 0 17.067 7.877 17.067 17.067v921.6c0 9.19-7.877 17.067-17.067 17.067zM699.733 925.867h85.333v-102.4h-85.333v102.4zM170.667 925.867h85.333v-102.4h-85.333v102.4zM34.133 857.6h102.4v-51.2c0-9.19 7.877-17.067 17.067-17.067h119.467c9.19 0 17.067 7.877 17.067 17.067v51.2h375.467v-51.2c0-9.19 7.877-17.067 17.067-17.067h119.467c9.19 0 17.067 7.877 17.067 17.067v51.2h102.4v-153.6h-887.467v153.6zM34.133-29.867v699.733h887.467v-699.733h-887.467zM614.4 567.467h-460.8v-494.933h648.533v494.933h-187.733zM494.933 533.333h119.467v-119.467h-119.467v119.467zM614.4 260.267h-119.467v119.467h119.467v-119.467zM341.333 379.733h119.467v-119.467h-119.467v119.467zM341.333 533.333h119.467v-119.467h-119.467v119.467zM187.733 533.333h119.467v-119.467h-119.467v119.467zM187.733 379.733h119.467v-119.467h-119.467v119.467zM307.2 106.667h-119.467v119.467h119.467v-119.467zM460.8 106.667h-119.467v119.467h119.467v-119.467zM614.4 106.667h-119.467v119.467h119.467v-119.467zM768 106.667h-119.467v119.467h119.467v-119.467zM768 260.267h-119.467v119.467h119.467v-119.467zM768 533.333v-119.467h-119.467v119.467h119.467z" />
<glyph unicode="&#xe91d;" glyph-name="SVG-22" horiz-adv-x="1376" d="M492.155-64l-492.155 492.155 137.592 137.592 351.917-351.917 748.817 746.171 137.592-140.238-883.762-883.762z" />
<glyph unicode="&#xe91e;" glyph-name="SVG-21" horiz-adv-x="1502" d="M1228.8 211.342c-36.409 0-70.542-13.653-97.849-40.96s-40.96-61.44-40.96-97.849 13.653-70.542 40.96-97.849c27.307-25.031 61.44-40.96 97.849-40.96 75.093 0 136.533 61.44 136.533 136.533s-61.44 141.084-136.533 141.084zM1228.8-2.56c-43.236 0-77.369 34.133-77.369 77.369 0 40.96 36.409 77.369 77.369 77.369s75.093-34.133 75.093-77.369-34.133-77.369-75.093-77.369zM1262.933 668.729c-4.551 4.551-13.653 6.827-20.48 6.827h-157.013c-15.929 0-29.582-13.653-29.582-29.582v-250.311c0-15.929 13.653-29.582 29.582-29.582h248.036c15.929 0 29.582 13.653 29.582 29.582v168.391c0 9.102-4.551 15.929-9.102 22.756l-91.022 81.92zM1303.893 427.52h-188.871v188.871h113.778l72.818-65.991v-122.88zM480.142 211.342c-36.409 0-70.542-13.653-97.849-40.96s-40.96-61.44-40.96-97.849 13.653-70.542 40.96-97.849c27.307-25.031 61.44-40.96 97.849-40.96 75.093 0 136.533 61.44 136.533 136.533s-61.44 141.084-136.533 141.084zM480.142-2.56c-43.236 0-77.369 34.133-77.369 77.369 0 40.96 36.409 77.369 77.369 77.369s75.093-34.133 75.093-77.369-31.858-77.369-75.093-77.369zM277.618 172.658h-61.44v81.92c0 15.929-13.653 29.582-29.582 29.582s-29.582-13.653-29.582-29.582v-111.502c0-15.929 13.653-29.582 29.582-29.582h91.022c15.929 0 29.582 13.653 29.582 29.582s-13.653 29.582-29.582 29.582zM432.356 341.049c0 15.929-13.653 29.582-29.582 29.582h-373.191c-15.929 0-29.582-13.653-29.582-29.582s13.653-29.582 29.582-29.582h370.916c18.204-2.276 31.858 11.378 31.858 29.582zM93.298 450.276l370.916-2.276c15.929 0 29.582 13.653 31.858 29.582 0 18.204-13.653 31.858-29.582 31.858l-373.191 2.276c0 0 0 0 0 0-15.929 0-29.582-13.653-29.582-29.582-2.276-18.204 11.378-31.858 29.582-31.858zM154.738 589.084h370.916c15.929 0 29.582 13.653 29.582 29.582s-13.653 29.582-29.582 29.582h-370.916c-15.929 0-29.582-13.653-29.582-29.582s13.653-29.582 29.582-29.582zM1490.489 630.044v0l-218.453 182.044c-4.551 4.551-11.378 6.827-20.48 6.827h-257.138v111.502c0 15.929-13.653 29.582-29.582 29.582h-780.516c-15.929 0-29.582-13.653-29.582-29.582v-223.004c0-15.929 13.653-29.582 29.582-29.582s29.582 13.653 29.582 29.582v191.147h719.076v-725.902h-250.311c-15.929 0-29.582-13.653-29.582-29.582s13.653-29.582 29.582-29.582h373.191c15.929 0 29.582 13.653 29.582 29.582s-13.653 29.582-29.582 29.582h-61.44v584.818h245.76l200.249-166.116-2.276-418.702h-31.858c-15.929 0-29.582-13.653-29.582-29.582s13.653-29.582 29.582-29.582h61.44c15.929 0 29.582 13.653 29.582 29.582l4.551 464.213c0 9.102-4.551 18.204-11.378 22.756z" />
<glyph unicode="&#xe91f;" glyph-name="SVG-20" horiz-adv-x="1942" d="M1915.586-37.517c-14.713-14.713-38.253-14.713-52.966 0l-891.586 894.529-894.529-894.529c-14.713-14.713-38.253-14.713-52.966 0s-14.713 38.253 0 52.966l921.011 918.069c5.885 5.885 17.655 11.77 26.483 11.77s17.655-2.943 26.483-11.77l921.011-921.011c5.885-5.885 11.77-17.655 11.77-26.483-2.943-5.885-5.885-14.713-14.713-23.54zM1006.345 945.287l921.011-921.011c8.828-8.828 14.713-23.54 14.713-35.31 0-14.713-5.885-26.483-14.713-35.31s-23.54-14.713-35.31-14.713c0 0 0 0 0 0-14.713 0-26.483 5.885-35.31 14.713l-882.759 882.759-882.759-882.759c-20.598-20.598-52.966-20.598-73.563 0s-20.598 52.966 0 73.563l918.069 918.069c8.828 8.828 20.598 14.713 35.31 14.713s26.483-5.885 35.31-14.713zM67.678-25.747l903.356 903.356 903.356-903.356c2.943-2.943 8.828-5.885 14.713-5.885v0c5.885 0 11.77 2.943 14.713 5.885v0c2.943 2.943 5.885 8.828 5.885 14.713s-2.943 11.77-5.885 14.713l-918.069 921.011c-8.828 8.828-23.54 8.828-32.368 0l-918.069-921.011c-8.828-8.828-8.828-23.54 0-32.368 2.943-2.943 8.828-5.885 14.713-5.885s11.77 2.943 17.655 8.828z" />
<glyph unicode="&#xe920;" glyph-name="SVG-44" horiz-adv-x="1173" d="M834.715 401.455h-158.255c-43.442 0-77.576-34.133-77.576-77.576v-121.018c0-43.442 34.133-77.576 77.576-77.576h158.255c43.442 0 77.576 34.133 77.576 77.576v121.018c0 43.442-34.133 77.576-77.576 77.576zM853.333 199.758c0-12.412-9.309-21.721-21.721-21.721h-158.255c-12.412 0-21.721 9.309-21.721 21.721v121.018c0 12.412 9.309 21.721 21.721 21.721h158.255c12.412 0 21.721-9.309 21.721-21.721v-121.018zM1172.945 624.873c0 6.206 0 9.309-3.103 15.515l-173.77 307.2c-6.206 6.206-15.515 12.412-27.927 12.412h-766.448c-9.309 0-18.618-6.206-24.824-15.515l-173.77-307.2c-3.103-3.103-3.103-6.206-3.103-12.412 0-68.267 40.339-127.224 99.297-155.152v-505.794c0-15.515 12.412-27.927 27.927-27.927h158.255c0 0 0 0 0 0h223.418c0 0 0 0 0 0h530.618c15.515 0 27.927 12.412 27.927 27.927v502.691c0 0 0 3.103 0 3.103 65.164 27.927 105.503 86.885 105.503 155.152zM220.315 901.042h732.315l136.533-238.933h-1005.382l136.533 238.933zM834.715 606.255c-9.309-52.752-55.855-89.988-108.606-89.988-55.855 0-99.297 40.339-108.606 89.988h217.212zM555.442 606.255c-9.309-52.752-55.855-89.988-108.606-89.988-55.855 0-99.297 40.339-108.606 89.988h217.212zM58.958 606.255h217.212c-9.309-52.752-55.855-89.988-108.606-89.988-52.752-3.103-99.297 37.236-108.606 89.988zM484.073-5.042h-164.461v310.303c0 21.721 18.618 40.339 40.339 40.339h83.782c21.721 0 40.339-18.618 40.339-40.339v-310.303zM1014.691-5.042h-474.764v310.303c0 52.752-43.442 99.297-99.297 99.297h-83.782c-52.752 0-99.297-43.442-99.297-99.297v-310.303h-99.297v462.352c3.103 0 6.206 0 9.309 0 58.958 0 108.606 27.927 139.636 74.473 31.030-43.442 80.679-74.473 139.636-74.473s108.606 27.927 139.636 74.473c31.030-43.442 80.679-74.473 139.636-74.473s108.606 27.927 139.636 74.473c31.030-43.442 80.679-74.473 139.636-74.473 3.103 0 6.206 0 9.309 0v-462.352zM1005.382 513.164c-55.855 0-99.297 40.339-108.606 89.988h217.212c-9.309-49.648-55.855-89.988-108.606-89.988z" />
<glyph unicode="&#xe921;" glyph-name="SVG-43" d="M570.027 297.813c-13.653-10.24-13.653-34.133 0-47.787 6.827-6.827 13.653-10.24 20.48-10.24s17.067 3.413 20.48 10.24l174.080 170.667c6.827 6.827 10.24 13.653 10.24 20.48s-3.413 17.067-10.24 20.48l-170.667 177.493c-10.24 13.653-30.72 13.653-44.373 0-13.653-10.24-13.653-30.72 0-40.96l122.88-122.88-443.733 6.827c-17.067 0-30.72-13.653-30.72-30.72s13.653-30.72 30.72-30.72l440.32-6.827-119.467-116.053zM505.173-64c283.307-3.413 515.413 225.28 518.827 505.173 3.413 283.307-225.28 515.413-505.173 518.827-283.307 3.413-515.413-225.28-518.827-505.173-3.413-283.307 225.28-515.413 505.173-518.827zM505.173-2.56c-249.173 3.413-447.147 208.213-443.733 457.387s208.213 447.147 457.387 443.733c249.173-3.413 447.147-208.213 443.733-457.387-3.413-245.76-208.213-447.147-457.387-443.733z" />
<glyph unicode="&#xe922;" glyph-name="SVG-42" d="M102.4 755.2h-102.4v-716.8c0-56.22 46.18-102.4 102.4-102.4h716.8v102.4h-716.8v716.8zM921.6 960h-614.4c-56.22 0-102.4-46.18-102.4-102.4v-614.4c0-56.22 46.18-102.4 102.4-102.4h614.4c56.22 0 102.4 46.18 102.4 102.4v614.4c0 56.22-46.18 102.4-102.4 102.4zM869.396 498.196h-202.792v-204.8h-104.408v204.8h-202.792v102.4h202.792v204.8h102.4v-204.8h204.8v-102.4z" />
<glyph unicode="&#xe923;" glyph-name="SVG-41" horiz-adv-x="939" d="M689.891 378.469h-440.663c-137.256 0-249.228-166.152-249.228-303.407v-110.166c0-14.448 12.642-27.090 27.090-27.090h883.132c14.448 0 27.090 12.642 27.090 27.090v110.166c1.806 137.256-110.166 303.407-247.422 303.407zM249.228 322.483h442.469c106.554 0 193.242-142.674 193.242-249.228v-83.076h-828.952v84.882c0 106.554 86.688 247.422 193.242 247.422zM469.559 463.351c137.256 0 249.228 111.972 249.228 249.228 0 135.45-111.972 247.422-249.228 247.422s-249.228-111.972-249.228-249.228c0-137.256 111.972-247.422 249.228-247.422zM469.559 904.014c106.554 0 193.242-86.688 193.242-193.242s-86.688-193.242-193.242-193.242c-106.554 0-193.242 86.688-193.242 193.242s86.688 193.242 193.242 193.242z" />
<glyph unicode="&#xe924;" glyph-name="SVG-40" horiz-adv-x="739" d="M679.711 225.616c-26.597 25.12-54.672 35.463-59.105 36.941l-93.091 38.418c0 0-1.478 0-2.955 1.478l-63.538 16.254v54.672c1.478 0 1.478 1.478 2.955 1.478 1.478-1.478 4.433-1.478 5.911-2.955 39.896-5.911 76.837-16.254 106.39-29.553 1.478-1.478 4.433-1.478 5.911-1.478 5.911 0 10.343 2.955 13.299 7.388 0 0 1.478 1.478 1.478 1.478 51.717 67.971 81.27 155.152 81.27 245.287 0 110.823-42.851 215.734-116.733 285.183v0c-50.24 51.717-119.688 79.792-190.615 79.792-171.405 0-310.303-164.017-310.303-364.975 0-93.091 29.553-181.749 84.225-249.72 0 0 0 0 0 0s0 0 0 0 1.478-1.478 1.478-1.478c0 0 0 0 0 0 1.478-1.478 4.433-2.955 5.911-2.955 0 0 0 0 0 0s1.478 0 1.478 0c0 0 0 0 0 0 1.478 0 1.478 0 2.955 0 0 0 0 0 0 0s1.478 0 1.478 0c0 0 0 0 1.478 0 0 0 1.478 0 1.478 0s0 0 1.478 0c0 0 0 0 1.478 0 29.553 13.299 67.971 23.642 107.867 31.030 1.478 0 4.433 1.478 5.911 1.478 0 0 1.478 0 1.478-1.478v-54.672l-67.971-16.254c-1.478 0-1.478 0-2.955-1.478l-93.091-38.418c-4.433-1.478-32.508-11.821-59.105-36.941s-59.105-70.926-59.105-143.33v-130.032c0-8.866 7.388-16.254 16.254-16.254h195.048c8.866 0 16.254 7.388 16.254 16.254s-7.388 16.254-16.254 16.254h-53.195v121.166c0 8.866-7.388 16.254-16.254 16.254s-16.254-7.388-16.254-16.254v-119.688h-90.136v113.778c0 116.733 91.613 149.241 96.046 150.719 0 0 0 0 1.478 0l76.837 32.508 10.343-36.941c0 0 0 0 0 0l72.404-260.063h-32.508c-8.866 0-16.254-7.388-16.254-16.254s7.388-16.254 16.254-16.254h53.195c0 0 0 0 0 0v0h121.166c0 0 0 0 0 0v0h289.616c8.866 0 16.254 7.388 16.254 16.254v130.032c1.478 72.404-31.030 118.211-57.628 143.33zM162.54 376.335c-44.329 60.583-69.449 138.898-69.449 220.167 0 183.227 125.599 332.468 277.795 332.468 63.538 0 122.644-25.12 171.405-70.926 67.971-63.538 106.39-158.107 106.39-261.541 0-81.27-25.12-158.107-69.449-220.167-23.642 8.866-50.24 17.732-78.315 23.642 28.075 26.597 48.762 62.061 53.195 101.957 39.896 2.955 70.926 36.941 70.926 76.837s-29.553 72.404-69.449 76.837c0 7.388-5.911 14.776-13.299 16.254-110.823 22.165-158.107 88.658-159.584 88.658-2.955 4.433-7.388 5.911-11.821 7.388-4.433 0-8.866-1.478-13.299-4.433-63.538-65.016-161.062-90.136-161.062-90.136-7.388-1.478-11.821-8.866-11.821-14.776-36.941-8.866-67.971-41.374-67.971-81.27s31.030-73.882 70.926-76.837c5.911-39.896 25.12-75.359 53.195-101.957-28.075-5.911-54.672-13.299-78.315-22.165zM557.068 532.964v87.18c20.687-4.433 36.941-22.165 36.941-44.329 0-20.687-16.254-38.418-36.941-42.851zM186.182 621.622v-87.18c-20.687 4.433-36.941 22.165-36.941 44.329 0 20.687 16.254 38.418 36.941 42.851zM218.69 524.098v118.211c28.075 8.866 97.524 33.986 152.196 84.225 20.687-22.165 69.449-65.016 153.674-84.225v-116.733c0-75.359-60.583-135.942-135.942-135.942h-33.986c-75.359-2.955-135.942 59.105-135.942 134.465zM236.421 274.378l62.061 14.776c7.388 1.478 11.821 8.866 11.821 16.254v54.672c16.254-2.955 29.553-5.911 44.329-5.911h32.508c14.776 0 29.553 1.478 42.851 5.911v-54.672c0-7.388 4.433-13.299 11.821-16.254l63.538-16.254-8.866-31.030c-56.15-32.508-115.255-42.851-177.316-29.553-36.941 7.388-63.538 22.165-73.882 29.553l-8.866 32.508zM419.648-31.492h-97.524l-65.016 231.988c14.776-5.911 32.508-13.299 54.672-17.732 17.732-4.433 36.941-7.388 60.583-7.388 33.986 0 72.404 5.911 113.778 25.12l-66.494-231.988zM706.309-31.492h-93.091v119.688c0 8.866-7.388 16.254-16.254 16.254s-16.254-7.388-16.254-16.254v-119.688h-128.554l82.747 295.527 72.404-31.030c0 0 0 0 1.478 0 4.433-1.478 96.046-33.986 96.046-150.719l1.478-113.778zM367.931 500.456h28.075c8.866 0 16.254 7.388 16.254 16.254s-7.388 16.254-16.254 16.254h-11.821v36.941c0 8.866-7.388 16.254-16.254 16.254s-16.254-7.388-16.254-16.254v-53.195c0-8.866 7.388-16.254 16.254-16.254z" />
<glyph unicode="&#xe925;" glyph-name="SVG-39" d="M0 149.333v-213.333h213.333l628.622 628.622-213.333 213.333-628.622-628.622zM1006.933 729.6c22.756 22.756 22.756 56.889 0 79.644l-133.689 133.689c-22.756 22.756-56.889 22.756-79.644 0l-105.244-105.244 213.333-213.333 105.244 105.244z" />
<glyph unicode="&#xe926;" glyph-name="SVG-38" horiz-adv-x="1157" d="M1036.507-64c0 0-1.563 0 0 0-318.925 1.563-634.724 1.563-930.198 0 0 0 0 0 0 0-15.634 0-35.957 1.563-48.464 14.070-10.944 10.944-15.634 25.014-15.634 50.027 1.563 179.786 1.563 364.263 1.563 540.922v182.913c0 6.253 4.69 10.944 10.944 10.944s10.944-4.69 10.944-10.944v-182.913c0-176.66 0-361.136-1.563-540.922 0-17.197 3.127-28.14 7.817-34.394 6.253-6.253 17.197-7.817 34.394-9.38 295.475 1.563 611.273 1.563 928.635 0 15.634 0 25.014 1.563 29.704 7.817 6.253 6.253 7.817 18.76 7.817 35.957-1.563 182.913 0 364.263 0 547.176v178.223c0 6.253 4.69 10.944 10.944 10.944s10.944-4.69 10.944-10.944v-178.223c0-182.913 0-364.263 0-547.176 0-20.324-1.563-37.521-12.507-50.027-10.944-10.944-25.014-14.070-45.337-14.070zM1078.718 723.933c-1.563 0-1.563 0 0 0-90.675 0-181.35 0-270.461 0h-107.872c-6.253 0-10.944 4.69-10.944 10.944s4.69 10.944 10.944 10.944h107.872c90.675 0 179.786 0 270.461 0 25.014-1.563 42.211 1.563 48.464 7.817 7.817 7.817 7.817 23.45 7.817 50.027 0 9.38 0 17.197 0 26.577 0 18.76 0 39.084 0 59.408 1.563 15.634-1.563 26.577-6.253 32.831-6.253 3.127-17.197 6.253-35.957 6.253-100.055-1.563-201.673 0-300.165 0-37.521 0-76.605 0-114.125 0-6.253 0-10.944 4.69-10.944 10.944s4.69 10.944 10.944 10.944c37.521 0 76.605 0 114.125 0 98.492 0 200.11 0 300.165 0 25.014 0 40.647-4.69 51.591-15.634 9.38-10.944 14.070-26.577 12.507-48.464-1.563-18.76-1.563-37.521 0-56.281 0-9.38 0-17.197 0-26.577 0-32.831-3.127-51.591-14.070-64.098-14.070-14.070-32.831-15.634-64.098-15.634zM68.788 723.933c-51.591 0-67.224 15.634-67.224 68.788 0 10.944 0 21.887 0 31.267 0 20.324 1.563 37.521-1.563 56.281-3.127 25.014 1.563 42.211 10.944 54.718 10.944 12.507 28.14 17.197 57.844 15.634 95.365-1.563 192.293-1.563 286.095-1.563 37.521 0 75.041 0 112.562 0 6.253 0 10.944-4.69 10.944-10.944s-4.69-9.38-9.38-9.38c-37.521 0-75.041 0-112.562 0-93.802 0-190.73 0-287.658 1.563-21.887 0-34.394-3.127-40.647-10.944-6.253-6.253-7.817-18.76-6.253-37.521 1.563-20.324 1.563-39.084 1.563-59.408 0-10.944 0-20.324 0-31.267 0-40.647 6.253-46.901 46.901-46.901 0 0 0 0 0 0 92.238 0 182.913 0 275.151 0h114.125c6.253 0 10.944-4.69 10.944-10.944s-4.69-10.944-10.944-10.944h-114.125c-93.802 1.563-184.476 1.563-276.715 1.563 1.563 0 0 0 0 0zM489.331 187.701c-1.563 0-1.563 0-3.127 0-28.14 6.253-56.281 6.253-84.421 4.69-15.634 0-32.831-1.563-50.027 0-6.253 0-10.944 4.69-9.38 10.944 0 6.253 4.69 10.944 10.944 9.38 15.634-1.563 32.831 0 48.464 0 29.704 1.563 59.408 1.563 90.675-6.253 6.253-1.563 9.38-6.253 7.817-12.507-1.563-3.127-6.253-6.253-10.944-6.253zM392.403 87.646c-17.197 0-34.394 1.563-53.154 6.253-6.253 1.563-9.38 7.817-7.817 12.507 1.563 6.253 7.817 9.38 12.507 7.817 23.45-6.253 45.337-6.253 70.351-4.69 14.070 0 28.14 1.563 42.211 0 6.253 0 9.38-4.69 9.38-10.944s-4.69-10.944-10.944-9.38c-14.070 1.563-26.577 0-40.647 0-6.253-1.563-14.070-1.563-21.887-1.563zM447.121 140.8h-93.802c-6.253 0-10.944 4.69-10.944 10.944s4.69 10.944 10.944 10.944h93.802c6.253 0 10.944-4.69 10.944-10.944s-4.69-10.944-10.944-10.944zM536.232 25.111c0 0 0 0 0 0-90.675 0-182.913 0-276.715 0h-101.618c-6.253 0-10.944 4.69-10.944 10.944v53.154c0 54.718 0 107.872 0 161.026 0 14.070 9.38 25.014 25.014 26.577 1.563 0 3.127 0 3.127 0 1.563 0 1.563 0 3.127 0h90.675c82.858 0 167.279 0 250.137 0 18.76 0 35.957-1.563 46.901-12.507 7.817-7.817 10.944-18.76 10.944-35.957-1.563-48.464 0-98.492 0-146.956v-10.944c0-10.944-1.563-26.577-10.944-35.957-6.253-4.69-15.634-9.38-29.704-9.38zM168.843 36.055v0 0zM359.573 46.998c59.408 0 118.815 0 176.66 0 6.253 0 12.507 1.563 15.634 4.69s4.69 10.944 4.69 21.887v10.944c0 48.464 0 98.492 0 146.956 0 9.38-1.563 15.634-4.69 20.324-4.69 4.69-17.197 4.69-31.267 4.69-82.858 0-167.279 0-250.137 0h-90.675c-1.563 0-1.563 0-3.127 0 0 0-1.563 0-1.563 0-6.253 0-6.253-3.127-6.253-4.69 0-53.154 0-106.308 0-161.026v-43.774h92.238c32.831 0 65.661 0 98.492 0zM683.188 501.936l-104.745 106.308-104.745-106.308v458.064h209.49z" />
<glyph unicode="&#xe927;" glyph-name="SVG-37" horiz-adv-x="539" d="M13.474-50.526c-7.485 7.485-7.485 19.462 0 26.947l471.579 471.579-471.579 471.579c-7.485 7.485-7.485 19.462 0 26.947s19.462 7.485 26.947 0l485.053-485.053c2.994-2.994 5.988-8.982 5.988-13.474s-1.497-10.48-5.988-13.474l-485.053-485.053c-4.491-4.491-8.982-5.988-13.474-5.988s-10.48 1.497-13.474 5.988zM7.485-56.515v0c-10.48 10.48-10.48 26.947 0 37.427l465.591 465.591-465.591 467.088c-10.48 10.48-10.48 26.947 0 37.427s26.947 10.48 37.427 0l485.053-485.053c4.491-4.491 7.485-11.977 7.485-19.462s-2.994-13.474-7.485-19.462l-483.556-483.556c-4.491-4.491-11.977-7.485-19.462-7.485s-13.474 2.994-19.462 7.485zM17.965 942.035c-4.491-4.491-4.491-11.977 0-17.965l477.567-476.070-477.567-476.070c-4.491-4.491-4.491-11.977 0-16.468v0c4.491-4.491 11.977-4.491 16.468 0l485.053 485.053c2.994 2.994 2.994 5.988 2.994 8.982s-1.497 5.988-2.994 8.982l-483.556 483.556c-2.994 1.497-5.988 2.994-8.982 2.994s-5.988-1.497-8.982-2.994z" />
<glyph unicode="&#xe928;" glyph-name="SVG-36" horiz-adv-x="925" d="M808.241 672.321h-178.087c-17.124 167.813-83.906 287.679-169.525 287.679s-152.401-119.866-167.813-289.391h-178.087l-114.729-734.609 924.682 1.712-116.441 734.609zM460.629 901.779c44.522 0 94.181-94.181 111.304-231.171h-220.896c15.411 136.99 65.070 231.171 109.592 231.171zM162.676 612.388l597.619 1.712 95.893-618.167-787.692-1.712 94.181 618.167z" />
<glyph unicode="&#xe929;" glyph-name="SVG-35" horiz-adv-x="7306" d="M3866.746 241.672h3133.134v412.657h-6694.209v-412.657h3148.418zM0 960h7305.552v-1024h-7305.552v1024z" />
<glyph unicode="&#xe92a;" glyph-name="SVG-34" horiz-adv-x="675" d="M672.582 771.491h-175.709c-17.455 48.873-64 83.782-118.691 83.782s-101.236-34.909-118.691-83.782h-175.709c-46.545 0-83.782-37.236-83.782-83.782v-672.582c0-46.545 38.4-83.782 83.782-83.782h588.8c46.545 0 83.782 37.236 83.782 83.782v672.582c0 45.382-37.236 83.782-83.782 83.782zM378.182 771.491c23.273 0 41.891-18.618 41.891-41.891s-18.618-41.891-41.891-41.891-41.891 18.618-41.891 41.891 18.618 41.891 41.891 41.891zM672.582 15.127h-588.8v672.582h83.782v-125.673h420.073v125.673h83.782v-672.582z" />
<glyph unicode="&#xe92b;" glyph-name="SVG-33" horiz-adv-x="974" d="M487.053-64c-14.255 0-26.135 4.752-40.39 14.255-54.645 33.262-97.411 64.148-135.425 95.035-235.211 187.694-334.998 439.536-306.487 772.158v11.879l11.879-2.376c199.573-26.135 346.877 14.255 460.919 128.297l4.752 4.752h14.255l2.376-4.752c133.049-142.552 301.735-144.928 451.415-128.297h11.879l2.376-9.503c11.879-66.524 14.255-137.8 4.752-216.204-35.638-287.48-185.318-506.060-446.664-655.74-14.255-4.752-26.135-9.503-35.638-9.503zM26.135 803.193c-21.383-318.367 73.652-560.705 296.984-738.896 38.014-30.886 80.78-59.397 133.049-92.659 23.759-14.255 35.638-11.879 52.269-2.376 254.218 144.928 399.146 358.756 434.784 636.733 9.503 71.276 9.503 137.8-2.376 197.197-142.552-14.255-318.367-9.503-453.791 130.673-114.042-111.666-261.346-154.432-460.919-130.673zM441.912 297.132l-149.68 147.304 52.269 52.269 92.659-95.035 185.318 187.694 59.397-61.773z" />
<glyph unicode="&#xe92c;" glyph-name="SVG-46" horiz-adv-x="964" d="M781.925 302.326c-57.841 0-111.397-27.849-145.674-70.695l-280.636 156.385c6.427 19.28 10.711 38.561 10.711 59.983s-4.285 40.703-10.711 59.983l280.636 156.385c34.276-42.845 85.69-72.837 145.674-72.837 100.686 0 182.092 81.406 182.092 182.092s-81.406 186.377-182.092 186.377-182.092-81.406-182.092-182.092c0-21.423 4.285-40.703 10.711-59.983l-280.636-156.385c-34.276 42.845-85.69 72.837-145.674 72.837-100.686 0-182.092-81.406-182.092-182.092s81.406-182.092 182.092-182.092c59.983 0 111.397 27.849 145.674 72.837l280.636-156.385c-6.427-19.28-10.711-40.703-10.711-59.983 0-100.686 81.406-182.092 182.092-182.092s182.092 81.406 182.092 182.092-81.406 175.665-182.092 175.665zM781.925 902.159c68.552 0 126.393-55.699 126.393-126.393s-55.699-126.393-126.393-126.393c-68.552 0-126.393 55.699-126.393 126.393s57.841 126.393 126.393 126.393zM182.092 323.749c-68.552 0-126.393 55.699-126.393 126.393s57.841 124.251 126.393 124.251 126.393-55.699 126.393-126.393-55.699-124.251-126.393-124.251zM781.925-6.159c-68.552 0-126.393 55.699-126.393 126.393s55.699 126.393 126.393 126.393c68.552 0 126.393-55.699 126.393-126.393s-57.841-126.393-126.393-126.393z" />
<glyph unicode="&#xe92d;" glyph-name="SVG-45" horiz-adv-x="1092" d="M921.733 892.265h-136.799v33.204c0 19.922-13.281 34.532-34.532 34.532s-33.204-13.281-33.204-34.532v-34.532h-341.333v34.532c0 19.922-13.281 34.532-34.532 34.532-19.922 0-34.532-13.281-34.532-34.532v-34.532h-136.799c-94.298 1.328-170.003-74.376-170.003-170.003v-614.931c0-95.626 75.704-170.003 170.003-170.003h750.402c95.626 0 170.003 75.704 170.003 170.003v614.931c1.328 95.626-73.048 171.331-168.674 171.331v0zM67.735 720.934c0 54.454 47.813 102.267 102.267 102.267h136.799v-34.532c0-19.922 13.281-34.532 34.532-34.532 19.922 0 34.532 13.281 34.532 34.532v34.532h341.333v-34.532c0-19.922 13.281-34.532 34.532-34.532s34.532 13.281 34.532 34.532v34.532h136.799c54.454 0 102.267-47.813 102.267-102.267v-102.267h-956.265l-1.328 102.267zM1024 106.003c0-54.454-47.813-102.267-102.267-102.267h-751.73c-54.454 0-102.267 47.813-102.267 102.267v444.929h956.265v-444.929zM239.066 106.003c19.922 0 34.532 6.641 47.813 19.922s19.922 34.532 19.922 47.813c0 13.281-6.641 34.532-19.922 47.813-27.891 27.891-67.735 27.891-95.626 0-13.281-13.281-19.922-27.891-19.922-47.813 0-13.281 6.641-34.532 19.922-47.813 13.281-11.953 26.563-19.922 47.813-19.922zM239.066 311.865c19.922 0 34.532 6.641 47.813 19.922s19.922 34.532 19.922 47.813c0 13.281-6.641 34.532-19.922 47.813-27.891 27.891-67.735 27.891-95.626 0-13.281-13.281-19.922-27.891-19.922-47.813s6.641-34.532 19.922-47.813 26.563-19.922 47.813-19.922zM443.601 106.003c19.922 0 34.532 6.641 47.813 19.922s19.922 34.532 19.922 47.813c0 13.281-6.641 34.532-19.922 47.813-27.891 27.891-67.735 27.891-95.626 0-13.281-13.281-19.922-34.532-19.922-47.813s6.641-34.532 19.922-47.813c13.281-11.953 27.891-19.922 47.813-19.922zM443.601 311.865c19.922 0 34.532 6.641 47.813 19.922s19.922 34.532 19.922 47.813c0 13.281-6.641 34.532-19.922 47.813-27.891 27.891-67.735 27.891-95.626 0-13.281-13.281-19.922-34.532-19.922-47.813s6.641-34.532 19.922-47.813c13.281-13.281 27.891-19.922 47.813-19.922zM648.135 106.003c19.922 0 34.532 6.641 47.813 19.922s19.922 27.891 19.922 47.813c0 19.922-6.641 34.532-19.922 47.813-27.891 27.891-67.735 27.891-95.626 0-13.281-13.281-19.922-34.532-19.922-47.813s6.641-34.532 19.922-47.813c14.61-11.953 27.891-19.922 47.813-19.922zM648.135 311.865c19.922 0 34.532 6.641 47.813 19.922s19.922 27.891 19.922 47.813c0 13.281-6.641 34.532-19.922 47.813-27.891 27.891-67.735 27.891-95.626 0-13.281-13.281-19.922-34.532-19.922-47.813s6.641-34.532 19.922-47.813 27.891-19.922 47.813-19.922zM852.669 106.003c19.922 0 34.532 6.641 47.813 19.922s19.922 34.532 19.922 47.813c0 13.281-6.641 34.532-19.922 47.813-27.891 27.891-67.735 27.891-95.626 0-13.281-13.281-19.922-27.891-19.922-47.813 0-13.281 6.641-34.532 19.922-47.813 14.61-11.953 27.891-19.922 47.813-19.922zM852.669 311.865c19.922 0 34.532 6.641 47.813 19.922s19.922 27.891 19.922 47.813c0 13.281-6.641 34.532-19.922 47.813-27.891 27.891-67.735 27.891-95.626 0-13.281-13.281-19.922-34.532-19.922-47.813s6.641-34.532 19.922-47.813c14.61-13.281 27.891-19.922 47.813-19.922z" />
</font>
</defs>
</svg>
